<?xml version="1.0" encoding="UTF-8" standalone="no"?>
<svg
   xmlns:dc="http://purl.org/dc/elements/1.1/"
   xmlns:cc="http://creativecommons.org/ns#"
   xmlns:rdf="http://www.w3.org/1999/02/22-rdf-syntax-ns#"
   xmlns:svg="http://www.w3.org/2000/svg"
   xmlns="http://www.w3.org/2000/svg"
   xmlns:xlink="http://www.w3.org/1999/xlink"
   xml:space="preserve"
   id="Layer_2"
   viewBox="0 0 414.772 500.994"
   height="580"
   width="450"
   version="1.0"><metadata
     id="metadata3375"><rdf:RDF><cc:Work
         rdf:about=""><dc:format>image/svg+xml</dc:format><dc:type
           rdf:resource="http://purl.org/dc/dcmitype/StillImage" /><dc:title></dc:title></cc:Work></rdf:RDF></metadata><defs
     id="defs3017" /><g
     id="g2643"><text
       style="font-size:22px;font-family:'Special Elite', Sans-Serif"
       id="text2872"
       y="9.6160021"
       x="106.03207">Zeichendeutung:</text>
<text
       id="text3411"
       style="font-size:10px;font-family:Special Elite, Sans-Serif"
       y="38.502422"
       x="54.051781"><tspan
         id="tspan3413"
         y="38.502422"
         x="54.051781" /><tspan
         id="tspan3405"
         y="38.502422"
         x="54.051781" /><tspan
         id="tspan3407"
         y="38.502422"
         x="54.051781" /><tspan
         id="tspan3409"
         y="38.502422"
         x="54.051781" /></text>
<text
       id="text3401"
       style="font-size:10px;font-family:Special Elite, Sans-Serif"
       y="38.502422"
       x="54.051781"><tspan
         id="tspan3403"
         y="38.502422"
         x="54.051781" /></text>
<text
       id="text3464"
       y="33.734173"
       x="21.578918"
       style="font-style:normal;font-weight:normal;font-size:13.82573318px;line-height:125%;font-family:'Special Elite', Sans-Serif;letter-spacing:0px;word-spacing:0px;fill:#000000;fill-opacity:1;stroke:none"
       xml:space="preserve"><tspan
         y="33.734173"
         x="21.578918"
         id="tspan3466">1. Ein Punkt steht für ein kurzes Leuchten.</tspan><tspan
         id="tspan3468"
         y="52.484173"
         x="21.578918">2. Ein Strich stellt ein langes Leuchten dar.</tspan><tspan
         id="tspan3470"
         y="71.234177"
         x="21.578918">3. Zwischen den Buchstaben gibt es eine Pause.</tspan><tspan
         id="tspan3472"
         y="89.984177"
         x="21.578918">4. Das Wort wird nach einer langen Pause wiederholt.</tspan></text>
</g><g
     id="g3272"
     transform="translate(-3.8164787,0)"><g
       id="g3132"
       transform="translate(-18.434315,0)"><circle
         id="circle3554"
         transform="matrix(1.296365,0,0,1.296365,202.38592,-57.340438)"
         r="3.555"
         cy="141.48"
         cx="39.4" /><rect
         id="rect3556"
         y="121.45683"
         x="285.73181"
         height="9.217145"
         width="27.651466" /><circle
         id="circle3558"
         transform="matrix(1.296365,0,0,1.296365,220.82023,-57.340438)"
         r="3.555"
         cy="141.48"
         cx="39.4" /><circle
         id="circle3560"
         transform="matrix(1.296365,0,0,1.296365,202.38592,-38.906127)"
         r="3.555"
         cy="141.48"
         cx="39.4" /><circle
         id="circle3562"
         transform="matrix(1.296365,0,0,1.296365,220.82023,-38.906126)"
         r="3.555"
         cy="141.48"
         cx="39.4" /><circle
         id="circle3564"
         transform="matrix(1.296365,0,0,1.296365,239.25454,-38.906126)"
         r="3.555"
         cy="141.48"
         cx="39.4" /><rect
         id="rect3566"
         y="139.89114"
         x="304.16614"
         height="9.217145"
         width="27.651466" /><circle
         id="circle3568"
         transform="matrix(1.296365,0,0,1.296365,202.38592,-20.471816)"
         r="3.555"
         cy="141.48"
         cx="39.4" /><rect
         id="rect3570"
         y="158.32545"
         x="267.29752"
         height="9.217145"
         width="27.651466" /><rect
         id="rect3572"
         y="158.32544"
         x="304.16614"
         height="9.217145"
         width="27.651466" /><rect
         id="rect3574"
         y="176.75975"
         x="248.8632"
         height="9.217145"
         width="27.651466" /><circle
         id="circle3576"
         transform="matrix(1.296365,0,0,1.296365,239.25454,-2.0375037)"
         r="3.555"
         cy="141.48"
         cx="39.4" /><circle
         id="circle3578"
         transform="matrix(1.296365,0,0,1.296365,257.68885,-2.0375037)"
         r="3.555"
         cy="141.48"
         cx="39.4" /><rect
         id="rect3580"
         y="176.75977"
         x="322.60043"
         height="9.217145"
         width="27.651466" /><rect
         id="rect3588"
         y="195.19408"
         x="248.8632"
         height="9.217145"
         width="27.651466" /><rect
         id="rect3590"
         y="195.19408"
         x="304.16614"
         height="9.217145"
         width="27.651466" /><rect
         id="rect3592"
         y="195.19408"
         x="341.03476"
         height="9.217145"
         width="27.651466" /><circle
         id="circle3594"
         transform="matrix(1.296365,0,0,1.296365,239.25454,16.396807)"
         r="3.555"
         cy="141.48"
         cx="39.4" /><rect
         id="rect3596"
         y="213.62837"
         x="248.8632"
         height="9.217145"
         width="27.651466" /><rect
         id="rect3598"
         y="213.62839"
         x="285.73181"
         height="9.217145"
         width="27.651466" /><circle
         id="circle3600"
         transform="matrix(1.296365,0,0,1.296365,276.12316,34.831118)"
         r="3.555"
         cy="141.48"
         cx="39.4" /><circle
         id="circle3602"
         transform="matrix(1.296365,0,0,1.296365,294.55748,34.831118)"
         r="3.555"
         cy="141.48"
         cx="39.4" /><g
         id="g2615"
         transform="translate(-1.8497366,0)"><text
           style="font-size:18px;font-family:Special Elite, Sans-Serif"
           xml:space="preserve"
           id="text3604"
           y="130.67398"
           x="231.22548">U</text>
<text
           style="font-size:18px;font-family:Special Elite, Sans-Serif"
           xml:space="preserve"
           id="text3608"
           y="149.10829"
           x="231.74756">V</text>
<text
           style="font-size:18px;font-family:Special Elite, Sans-Serif"
           xml:space="preserve"
           id="text3612"
           y="167.31757"
           x="229.15523">W</text>
<text
           style="font-size:18px;font-family:Special Elite, Sans-Serif"
           xml:space="preserve"
           id="text3616"
           y="185.97691"
           x="231.73405">X</text>
<text
           style="font-size:18px;font-family:Special Elite, Sans-Serif"
           xml:space="preserve"
           id="text3620"
           y="204.41122"
           x="231.76105">Y</text>
<text
           style="font-size:18px;font-family:Special Elite, Sans-Serif"
           xml:space="preserve"
           id="text3624"
           y="222.84554"
           x="232.27863">Z</text>
</g></g><g
       id="g3169"><circle
         id="circle2870"
         transform="matrix(1.296365,0,0,1.296365,-9.6086576,-57.340437)"
         r="3.555"
         cy="141.48"
         cx="39.4" /><rect
         id="rect3010"
         y="121.45683"
         x="55.302933"
         height="9.217145"
         width="27.651466" /><circle
         id="circle3324"
         transform="matrix(1.296365,0,0,1.296365,27.496285,-38.906126)"
         r="3.555"
         cy="141.48"
         cx="39.4" /><circle
         id="circle3326"
         transform="matrix(1.296365,0,0,1.296365,45.694276,-38.611276)"
         r="3.555"
         cy="141.48"
         cx="39.4" /><circle
         id="circle3328"
         transform="matrix(1.296365,0,0,1.296365,64.122679,-38.906126)"
         r="3.555"
         cy="141.48"
         cx="39.4" /><rect
         id="rect3330"
         y="158.32544"
         x="36.868622"
         height="9.217145"
         width="27.651466" /><circle
         id="circle3332"
         transform="matrix(1.296365,0,0,1.296365,27.23125,-20.471815)"
         r="3.555"
         cy="141.48"
         cx="39.4" /><rect
         id="rect3334"
         y="158.32544"
         x="92.171555"
         height="9.217145"
         width="27.651466" /><circle
         id="circle3336"
         transform="matrix(1.296365,0,0,1.296365,82.623628,-20.471815)"
         r="3.555"
         cy="141.48"
         cx="39.4" /><rect
         id="rect3338"
         y="176.75977"
         x="36.868622"
         height="9.217145"
         width="27.651466" /><circle
         id="circle3340"
         transform="matrix(1.296365,0,0,1.296365,27.17162,-2.0375044)"
         r="3.555"
         cy="141.48"
         cx="39.4" /><circle
         id="circle3342"
         transform="matrix(1.296365,0,0,1.296365,45.694276,-1.8597136)"
         r="3.555"
         cy="141.48"
         cx="39.4" /><circle
         id="circle3412"
         transform="matrix(1.296365,0,0,1.296365,-9.6086576,16.396807)"
         r="3.555"
         cy="141.48"
         cx="39.4" /><circle
         id="circle3414"
         transform="matrix(1.296365,0,0,1.296365,-9.6086574,34.831118)"
         r="3.555"
         cy="141.48"
         cx="39.4" /><circle
         id="circle3416"
         transform="matrix(1.296365,0,0,1.296365,8.8256537,34.831118)"
         r="3.555"
         cy="141.48"
         cx="39.4" /><rect
         id="rect3420"
         y="213.62837"
         x="73.737244"
         height="9.217145"
         width="27.651466" /><circle
         id="circle3422"
         transform="matrix(1.296365,0,0,1.296365,64.128587,34.831118)"
         r="3.555"
         cy="141.48"
         cx="39.4" /><rect
         id="rect3424"
         y="232.06268"
         x="36.868622"
         height="9.217145"
         width="27.651466" /><rect
         id="rect3426"
         y="232.06268"
         x="73.737244"
         height="9.217145"
         width="27.651466" /><circle
         id="circle3428"
         transform="matrix(1.296365,0,0,1.296365,64.128587,53.265429)"
         r="3.555"
         cy="141.48"
         cx="39.4" /><circle
         id="circle3458"
         transform="matrix(1.296365,0,0,1.296365,-9.6086576,71.69974)"
         r="3.555"
         cy="141.48"
         cx="39.4" /><circle
         id="circle3460"
         transform="matrix(1.296365,0,0,1.296365,8.8256535,71.69974)"
         r="3.555"
         cy="141.48"
         cx="39.4" /><circle
         id="circle3462"
         transform="matrix(1.296365,0,0,1.296365,27.259965,71.69974)"
         r="3.555"
         cy="141.48"
         cx="39.4" /><circle
         id="circle3464"
         transform="matrix(1.296365,0,0,1.296365,45.694276,71.69974)"
         r="3.555"
         cy="141.48"
         cx="39.4" /><circle
         id="circle3466"
         transform="matrix(1.296365,0,0,1.296365,-9.6086576,90.134051)"
         r="3.555"
         cy="141.48"
         cx="39.4" /><circle
         id="circle3468"
         transform="matrix(1.296365,0,0,1.296365,8.8256537,90.134051)"
         r="3.555"
         cy="141.48"
         cx="39.4" /><circle
         id="circle3470"
         transform="matrix(1.296365,0,0,1.296365,-9.6086576,108.56836)"
         r="3.555"
         cy="141.48"
         cx="39.4" /><rect
         id="rect3472"
         y="287.36563"
         x="55.302933"
         height="9.217145"
         width="27.651466" /><rect
         id="rect3474"
         y="287.36563"
         x="92.171555"
         height="9.217145"
         width="27.651466" /><rect
         id="rect3476"
         y="287.36563"
         x="129.04018"
         height="9.217145"
         width="27.651466" /><rect
         id="rect3478"
         y="305.79993"
         x="36.868622"
         height="9.217145"
         width="27.651466" /><circle
         id="circle3480"
         transform="matrix(1.296365,0,0,1.296365,27.259965,127.00267)"
         r="3.555"
         cy="141.48"
         cx="39.4" /><rect
         id="rect3482"
         y="305.79996"
         x="92.171555"
         height="9.217145"
         width="27.651466" /><circle
         id="circle3484"
         transform="matrix(1.296365,0,0,1.296365,-9.6086576,145.43698)"
         r="3.555"
         cy="141.48"
         cx="39.4" /><rect
         id="rect3486"
         y="324.23425"
         x="55.302933"
         height="9.217145"
         width="27.651466" /><circle
         id="circle3488"
         transform="matrix(1.296365,0,0,1.296365,45.694276,145.43698)"
         r="3.555"
         cy="141.48"
         cx="39.4" /><circle
         id="circle3490"
         transform="matrix(1.296365,0,0,1.296365,64.128587,145.43698)"
         r="3.555"
         cy="141.48"
         cx="39.4" /><rect
         id="rect3492"
         y="342.66858"
         x="36.868622"
         height="9.217145"
         width="27.651466" /><rect
         id="rect3494"
         y="342.66858"
         x="73.737244"
         height="9.217145"
         width="27.651466" /><rect
         id="rect3496"
         y="361.10287"
         x="36.868622"
         height="9.217145"
         width="27.651466" /><circle
         id="circle3498"
         transform="matrix(1.296365,0,0,1.296365,27.259965,182.30561)"
         r="3.555"
         cy="141.48"
         cx="39.4" /><rect
         id="rect3500"
         y="379.5372"
         x="36.868622"
         height="9.217145"
         width="27.651466" /><rect
         id="rect3502"
         y="379.5372"
         x="73.737244"
         height="9.217145"
         width="27.651466" /><rect
         id="rect3504"
         y="379.5372"
         x="110.60587"
         height="9.217145"
         width="27.651466" /><circle
         id="circle3506"
         transform="matrix(1.296365,0,0,1.296365,-9.6086576,219.17423)"
         r="3.555"
         cy="141.48"
         cx="39.4" /><rect
         id="rect3508"
         y="397.9715"
         x="55.302933"
         height="9.217145"
         width="27.651466" /><rect
         id="rect3510"
         y="397.9715"
         x="92.171555"
         height="9.217145"
         width="27.651466" /><circle
         id="circle3512"
         transform="matrix(1.296365,0,0,1.296365,82.562898,219.17423)"
         r="3.555"
         cy="141.48"
         cx="39.4" /><rect
         id="rect3514"
         y="416.40579"
         x="36.868622"
         height="9.217145"
         width="27.651466" /><rect
         id="rect3516"
         y="416.40582"
         x="73.737244"
         height="9.217145"
         width="27.651466" /><circle
         id="circle3518"
         transform="matrix(1.296365,0,0,1.296365,64.128587,237.60854)"
         r="3.555"
         cy="141.48"
         cx="39.4" /><rect
         id="rect3520"
         y="416.40582"
         x="129.04018"
         height="9.217145"
         width="27.651466" /><circle
         id="circle3522"
         transform="matrix(1.296365,0,0,1.296365,-9.6086574,256.04285)"
         r="3.555"
         cy="141.48"
         cx="39.4" /><rect
         id="rect3524"
         y="434.84012"
         x="55.302933"
         height="9.217145"
         width="27.651466" /><circle
         id="circle3526"
         transform="matrix(1.296365,0,0,1.296365,45.694276,256.04285)"
         r="3.555"
         cy="141.48"
         cx="39.4" /><circle
         id="circle3528"
         transform="matrix(1.296365,0,0,1.296365,27.259965,274.47716)"
         r="3.555"
         cy="141.48"
         cx="39.4" /><circle
         id="circle3530"
         transform="matrix(1.296365,0,0,1.296365,8.8256537,274.47716)"
         r="3.555"
         cy="141.48"
         cx="39.4" /><circle
         id="circle3532"
         transform="matrix(1.296365,0,0,1.296365,-9.6086574,274.47716)"
         r="3.555"
         cy="141.48"
         cx="39.4" /><rect
         id="rect3534"
         y="471.70874"
         x="36.868622"
         height="9.217145"
         width="27.651466" /><g
         id="g2573"><text
           style="font-size:18px;font-family:Special Elite, Sans-Serif"
           xml:space="preserve"
           id="text3309"
           y="130.67398"
           x="17.138149">A</text>
<text
           style="font-size:18px;font-family:Special Elite, Sans-Serif"
           xml:space="preserve"
           id="text3344"
           y="149.10829"
           x="16.953625">B</text>
<text
           style="font-size:18px;font-family:Special Elite, Sans-Serif"
           xml:space="preserve"
           id="text3350"
           y="167.31757"
           x="16.535072">C</text>
<text
           style="font-size:18px;font-family:Special Elite, Sans-Serif"
           xml:space="preserve"
           id="text3356"
           y="185.97691"
           x="16.409058">D</text>
<text
           style="font-size:18px;font-family:Special Elite, Sans-Serif"
           xml:space="preserve"
           id="text3360"
           y="204.41122"
           x="16.904119">E</text>
<text
           style="font-size:18px;font-family:Special Elite, Sans-Serif"
           xml:space="preserve"
           id="text3364"
           y="222.84554"
           x="17.322672">F</text>
<text
           style="font-size:18px;font-family:Special Elite, Sans-Serif"
           xml:space="preserve"
           id="text3368"
           y="241.05481"
           x="16.202032">G</text>
<text
           style="font-size:18px;font-family:Special Elite, Sans-Serif"
           xml:space="preserve"
           id="text3372"
           y="259.71414"
           x="16.634085">H</text>
<text
           style="font-size:18px;font-family:Special Elite, Sans-Serif"
           xml:space="preserve"
           id="text3376"
           y="278.14847"
           x="20.693594">I</text>
<text
           style="font-size:18px;font-family:Special Elite, Sans-Serif"
           xml:space="preserve"
           id="text3380"
           y="296.58276"
           x="19.145401">J</text>
<text
           style="font-size:18px;font-family:Special Elite, Sans-Serif"
           xml:space="preserve"
           id="text3384"
           y="315.01709"
           x="16.481066">K</text>
<text
           style="font-size:18px;font-family:Special Elite, Sans-Serif"
           xml:space="preserve"
           id="text3388"
           y="333.45139"
           x="17.813232">L</text>
<text
           style="font-size:18px;font-family:Special Elite, Sans-Serif"
           xml:space="preserve"
           id="text3392"
           y="351.88571"
           x="15.621459">M</text>
<text
           style="font-size:18px;font-family:Special Elite, Sans-Serif"
           xml:space="preserve"
           id="text3396"
           y="370.32001"
           x="16.683592">N</text>
<text
           style="font-size:18px;font-family:Special Elite, Sans-Serif"
           xml:space="preserve"
           id="text3400"
           y="388.75433"
           x="16.085016">O</text>
<text
           style="font-size:18px;font-family:Special Elite, Sans-Serif"
           xml:space="preserve"
           id="text3404"
           y="425.62296"
           x="16.058014">Q</text>
<text
           style="font-size:18px;font-family:Special Elite, Sans-Serif"
           xml:space="preserve"
           id="text3408"
           y="407.18866"
           x="16.82761">P</text>
<text
           style="font-size:18px;font-family:Special Elite, Sans-Serif"
           xml:space="preserve"
           id="text3536"
           y="444.05728"
           x="16.022009">R</text>
<text
           style="font-size:18px;font-family:Special Elite, Sans-Serif"
           xml:space="preserve"
           id="text3540"
           y="462.49158"
           x="17.205658">S</text>
<text
           style="font-size:18px;font-family:Special Elite, Sans-Serif"
           xml:space="preserve"
           id="text3544"
           y="480.9259"
           x="17.62421">T</text>
</g><use
         xlink:href="#rect3010"
         height="500.99399"
         width="414.772"
         y="0"
         x="0"
         id="use2703"
         transform="translate(-18.43431,18.434311)" /></g><g
       id="g3051"
       transform="translate(-18.434314,64.295099)"><use
         xlink:href="#rect3010"
         height="500.99399"
         width="414.772"
         y="0"
         x="0"
         id="use2707"
         transform="translate(211.99458,119.82302)" /><use
         xlink:href="#rect3010"
         height="500.99399"
         width="414.772"
         y="0"
         x="0"
         id="use2709"
         transform="translate(248.8632,119.82301)" /><use
         xlink:href="#use2709"
         height="500.99399"
         width="414.772"
         y="0"
         x="0"
         id="use2711" /><use
         xlink:href="#rect3010"
         height="500.99399"
         width="414.772"
         y="0"
         x="0"
         id="use2713"
         transform="translate(285.73182,119.82301)" /><use
         xlink:href="#rect3010"
         height="500.99399"
         width="414.772"
         y="0"
         x="0"
         id="use2715"
         transform="translate(322.60045,119.82301)" /><use
         xlink:href="#circle2870"
         height="500.99399"
         width="414.772"
         y="0"
         x="0"
         id="use2717"
         transform="translate(211.99458,119.82302)" /><use
         xlink:href="#circle2870"
         height="500.99399"
         width="414.772"
         y="0"
         x="0"
         id="use2719"
         transform="translate(211.99458,138.25733)" /><use
         xlink:href="#circle2870"
         height="500.99399"
         width="414.772"
         y="0"
         x="0"
         id="use2721"
         transform="translate(230.42889,138.25733)" /><use
         xlink:href="#rect3010"
         height="500.99399"
         width="414.772"
         y="0"
         x="0"
         id="use2723"
         transform="translate(230.42889,138.25733)" /><use
         xlink:href="#rect3010"
         height="500.99399"
         width="414.772"
         y="0"
         x="0"
         id="use2725"
         transform="translate(267.29751,138.25733)" /><use
         xlink:href="#rect3010"
         height="500.99399"
         width="414.772"
         y="0"
         x="0"
         id="use2727"
         transform="translate(304.16613,138.25732)" /><use
         xlink:href="#circle2870"
         height="500.99399"
         width="414.772"
         y="0"
         x="0"
         id="use2779"
         transform="translate(211.99458,156.69164)" /><use
         xlink:href="#use2779"
         height="500.99399"
         width="414.772"
         y="0"
         x="0"
         id="use2781"
         transform="translate(18.434309,4.0522843e-6)" /><use
         xlink:href="#use2781"
         height="500.99399"
         width="414.772"
         y="0"
         x="0"
         id="use2783"
         transform="translate(18.434311,0)" /><use
         xlink:href="#use2723"
         height="500.99399"
         width="414.772"
         y="0"
         x="0"
         id="use2785"
         transform="translate(18.434309,18.434308)" /><use
         xlink:href="#use2785"
         height="500.99399"
         width="414.772"
         y="0"
         x="0"
         id="use2787"
         transform="translate(36.868622,9.8155382e-8)" /><use
         xlink:href="#use2779"
         height="500.99399"
         width="414.772"
         y="0"
         x="0"
         id="use2789"
         transform="translate(2.324722e-7,18.434311)" /><use
         xlink:href="#use2789"
         height="500.99399"
         width="414.772"
         y="0"
         x="0"
         id="use2791"
         transform="translate(18.434311,7.8636818e-8)" /><use
         xlink:href="#use2791"
         height="500.99399"
         width="414.772"
         y="0"
         x="0"
         id="use2793"
         transform="translate(18.434311,0)" /><use
         xlink:href="#use2793"
         height="500.99399"
         width="414.772"
         y="0"
         x="0"
         id="use2795"
         transform="translate(18.434311,0)" /><use
         xlink:href="#use2785"
         height="500.99399"
         width="414.772"
         y="0"
         x="0"
         id="use2797"
         transform="translate(18.434313,18.434307)" /><use
         xlink:href="#use2789"
         height="500.99399"
         width="414.772"
         y="0"
         x="0"
         id="use2799"
         transform="translate(-2.3247221e-7,18.434311)" /><use
         xlink:href="#use2799"
         height="500.99399"
         width="414.772"
         y="0"
         x="0"
         id="use2801"
         transform="translate(18.434311,-4.2724257e-8)" /><use
         xlink:href="#use2801"
         height="500.99399"
         width="414.772"
         y="0"
         x="0"
         id="use2803"
         transform="translate(18.434311,0)" /><use
         xlink:href="#use2803"
         height="500.99399"
         width="414.772"
         y="0"
         x="0"
         id="use2805"
         transform="translate(18.434312,0)" /><use
         xlink:href="#use2805"
         height="500.99399"
         width="414.772"
         y="0"
         x="0"
         id="use2807"
         transform="translate(18.434311,0)" /><use
         xlink:href="#use2789"
         height="500.99399"
         width="414.772"
         y="0"
         x="0"
         id="use2809"
         transform="translate(36.868622,36.868622)" /><use
         xlink:href="#use2791"
         height="500.99399"
         width="414.772"
         y="0"
         x="0"
         id="use2811"
         transform="translate(36.868622,36.868622)" /><use
         xlink:href="#use2793"
         height="500.99399"
         width="414.772"
         y="0"
         x="0"
         id="use2813"
         transform="translate(36.868622,36.868622)" /><use
         xlink:href="#use2795"
         height="500.99399"
         width="414.772"
         y="0"
         x="0"
         id="use2815"
         transform="translate(36.868622,36.868622)" /><use
         xlink:href="#use2797"
         height="500.99399"
         width="414.772"
         y="0"
         x="0"
         id="use2817"
         transform="translate(-73.737245,36.868622)" /><use
         xlink:href="#use2779"
         height="500.99399"
         width="414.772"
         y="0"
         x="0"
         id="use2819" /><use
         xlink:href="#use2781"
         height="500.99399"
         width="414.772"
         y="0"
         x="0"
         id="use2821" /><use
         xlink:href="#use2783"
         height="500.99399"
         width="414.772"
         y="0"
         x="0"
         id="use2823" /><use
         xlink:href="#use2785"
         height="500.99399"
         width="414.772"
         y="0"
         x="0"
         id="use2825" /><use
         xlink:href="#use2787"
         height="500.99399"
         width="414.772"
         y="0"
         x="0"
         id="use2827" /><use
         xlink:href="#use2779"
         height="500.99399"
         width="414.772"
         y="0"
         x="0"
         id="use2829"
         transform="translate(73.737242,73.737248)" /><use
         xlink:href="#use2781"
         height="500.99399"
         width="414.772"
         y="0"
         x="0"
         id="use2831"
         transform="translate(73.737244,73.737244)" /><use
         xlink:href="#use2783"
         height="500.99399"
         width="414.772"
         y="0"
         x="0"
         id="use2833"
         transform="translate(73.737244,73.737244)" /><use
         xlink:href="#use2825"
         height="500.99399"
         width="414.772"
         y="0"
         x="0"
         id="use2845"
         transform="translate(-55.302932,73.73724)" /><use
         xlink:href="#use2827"
         height="500.99399"
         width="414.772"
         y="0"
         x="0"
         id="use2847"
         transform="translate(-55.302931,73.737251)" /><use
         xlink:href="#use2829"
         height="500.99399"
         width="414.772"
         y="0"
         x="0"
         id="use2849"
         transform="translate(36.868622,18.434311)" /><use
         xlink:href="#use2831"
         height="500.99399"
         width="414.772"
         y="0"
         x="0"
         id="use2851"
         transform="translate(36.868622,18.434311)" /><use
         xlink:href="#use2845"
         height="500.99399"
         width="414.772"
         y="0"
         x="0"
         id="use2855"
         transform="translate(36.868622,18.434311)" /><use
         xlink:href="#use2847"
         height="500.99399"
         width="414.772"
         y="0"
         x="0"
         id="use2857"
         transform="translate(36.868622,18.434311)" /><use
         xlink:href="#use2855"
         height="500.99399"
         width="414.772"
         y="0"
         x="0"
         id="use2859"
         transform="translate(-36.868622,3.3648014e-7)" /><use
         xlink:href="#use2707"
         height="500.99399"
         width="414.772"
         y="0"
         x="0"
         id="use2861"
         transform="translate(-18.434316,147.4745)" /><use
         xlink:href="#use2709"
         height="500.99399"
         width="414.772"
         y="0"
         x="0"
         id="use2863"
         transform="translate(-18.434316,147.4745)" /><use
         xlink:href="#use2711"
         height="500.99399"
         width="414.772"
         y="0"
         x="0"
         id="use2865"
         transform="translate(-18.434316,147.4745)" /><use
         xlink:href="#use2713"
         height="500.99399"
         width="414.772"
         y="0"
         x="0"
         id="use2867"
         transform="translate(-18.434316,147.4745)" /><use
         xlink:href="#use2715"
         height="500.99399"
         width="414.772"
         y="0"
         x="0"
         id="use2869"
         transform="translate(-18.434316,147.4745)" /><use
         xlink:href="#use2869"
         height="500.99399"
         width="414.772"
         y="0"
         x="0"
         id="use2873"
         transform="translate(-110.60587,18.434302)" /><use
         xlink:href="#use2851"
         height="500.99399"
         width="414.772"
         y="0"
         x="0"
         id="use2875"
         transform="translate(18.434312,18.434312)" /><use
         xlink:href="#use2861"
         height="500.99399"
         width="414.772"
         y="0"
         x="0"
         id="use2877"
         transform="translate(36.868625,18.434302)" /><use
         xlink:href="#use2863"
         height="500.99399"
         width="414.772"
         y="0"
         x="0"
         id="use2879"
         transform="translate(36.868625,18.434302)" /><use
         xlink:href="#use2865"
         height="500.99399"
         width="414.772"
         y="0"
         x="0"
         id="use2881"
         transform="translate(36.868625,18.434302)" /><use
         xlink:href="#use2867"
         height="500.99399"
         width="414.772"
         y="0"
         x="0"
         id="use2883"
         transform="translate(36.868625,18.434302)" /><use
         xlink:href="#use2869"
         height="500.99399"
         width="414.772"
         y="0"
         x="0"
         id="use2885"
         transform="translate(36.868625,18.434302)" /><g
         id="g3029"><text
           style="font-size:18px;font-family:Special Elite, Sans-Serif"
           xml:space="preserve"
           id="text2889"
           y="250.49699"
           x="231.75656">1</text>
<text
           style="font-size:18px;font-family:Special Elite, Sans-Serif"
           xml:space="preserve"
           id="text2893"
           y="268.9313"
           x="231.284">2</text>
<text
           style="font-size:18px;font-family:Special Elite, Sans-Serif"
           xml:space="preserve"
           id="text2897"
           y="287.14056"
           x="231.09947">3</text>
<text
           style="font-size:18px;font-family:Special Elite, Sans-Serif"
           xml:space="preserve"
           id="text2901"
           y="305.79993"
           x="231.39651">4</text>
<text
           style="font-size:18px;font-family:Special Elite, Sans-Serif"
           xml:space="preserve"
           id="text2905"
           y="324.23422"
           x="231.05447">5</text>
<text
           style="font-size:18px;font-family:Special Elite, Sans-Serif"
           xml:space="preserve"
           id="text2909"
           y="342.66855"
           x="231.14449">6</text>
<text
           style="font-size:18px;font-family:Special Elite, Sans-Serif"
           xml:space="preserve"
           id="text2913"
           y="360.87781"
           x="231.04997">7</text>
<text
           style="font-size:18px;font-family:Special Elite, Sans-Serif"
           xml:space="preserve"
           id="text2917"
           y="379.53714"
           x="231.09947">8</text>
<text
           style="font-size:18px;font-family:Special Elite, Sans-Serif"
           xml:space="preserve"
           id="text2921"
           y="397.97147"
           x="231.09048">9</text>
<text
           style="font-size:18px;font-family:Special Elite, Sans-Serif"
           xml:space="preserve"
           id="text2925"
           y="416.40576"
           x="231.12648">0</text>
</g></g></g></svg>