<?xml version="1.0" encoding="utf-8"?>
<!-- Generator: Adobe Illustrator 19.1.0, SVG Export Plug-In . SVG Version: 6.00 Build 0)  -->
<svg version="1.1" id="Ebene_1" xmlns="http://www.w3.org/2000/svg" xmlns:xlink="http://www.w3.org/1999/xlink" x="0px" y="0px"
	 viewBox="4 246.9 604 348" style="enable-background:new 4 246.9 604 348;" xml:space="preserve">
<style type="text/css">
	.st0{clip-path:url(#SVGID_2_);}
	.st1{fill-opacity:0;}
	.st2{fill:#FFFFFF;}
	.st3{fill:none;stroke:#000000;stroke-width:2;stroke-linejoin:round;stroke-miterlimit:10;}
	.st4{stroke:#000000;stroke-width:2;stroke-miterlimit:10;}
	.st5{enable-background:new    ;}
</style>
<g>
	<g>
		<defs>
			<rect id="SVGID_1_" x="4" y="246.9" width="604" height="348"/>
		</defs>
		<clipPath id="SVGID_2_">
			<use xlink:href="#SVGID_1_"  style="overflow:visible;"/>
		</clipPath>
		<g class="st0">
			<path class="st1" d="M4,246.9h604v348H4V246.9z"/>
			<path class="st2" d="M118.4,246.9h357.3v348H118.4V246.9z"/>
			<path class="st1" d="M129.4,252.7h336.9v337.7H129.4V252.7z"/>
			<path class="st3" d="M129.4,252.7h336.9v337.7H129.4V252.7z"/>
			<path class="st2" d="M407.1,287.4L407.1,287.4c0-8.4,7-15.2,15.6-15.2l0,0c4.1,0,8.1,1.6,11,4.4s4.6,6.7,4.6,10.7l0,0
				c0,8.4-7,15.2-15.6,15.2l0,0C414.1,302.6,407.1,295.8,407.1,287.4z"/>
			<path class="st3" d="M407.1,287.4L407.1,287.4c0-8.4,7-15.2,15.6-15.2l0,0c4.1,0,8.1,1.6,11,4.4s4.6,6.7,4.6,10.7l0,0
				c0,8.4-7,15.2-15.6,15.2l0,0C414.1,302.6,407.1,295.8,407.1,287.4z"/>
			<path class="st1" d="M245.6,368.9l52.6-52.6l52.6,52.6l-52.6,52.6L245.6,368.9z"/>
			<path class="st3" d="M245.6,368.9l52.6-52.6l52.6,52.6l-52.6,52.6L245.6,368.9z"/>
			<path class="st1" d="M192.8,422l52.6-52.6L298,422l-52.6,52.6L192.8,422z"/>
			<path class="st3" d="M192.8,422l52.6-52.6L298,422l-52.6,52.6L192.8,422z"/>
			<path class="st1" d="M245.6,474.1l52.6-52.6l52.6,52.6l-52.6,52.6L245.6,474.1z"/>
			<path class="st3" d="M245.6,474.1l52.6-52.6l52.6,52.6l-52.6,52.6L245.6,474.1z"/>
			<path class="st1" d="M297.9,422l52.6-52.6L403,422l-52.6,52.6L297.9,422z"/>
			<path class="st3" d="M297.9,422l52.6-52.6L403,422l-52.6,52.6L297.9,422z"/>
			<path class="st1" d="M112.4,503.2H267"/>
			<path class="st3" d="M112.4,503.2H255"/>
			<path class="st4" d="M255,506.5l9.1-3.3l-9.1-3.3V506.5z"/>
			<path class="st1" d="M482.7,338.6H336.2"/>
			<path class="st3" d="M482.7,338.6H348.2"/>
			<path class="st4" d="M348.2,335.3l-9.1,3.3l9.1,3.3V335.3z"/>
			<path class="st1" d="M482.7,421.5h-68.5"/>
			<path class="st3" d="M482.7,421.5h-56.5"/>
			<path class="st4" d="M426.2,418.2l-9.1,3.3l9.1,3.3V418.2z"/>
			<path class="st1" d="M111.4,422h72.2"/>
			<path class="st3" d="M111.4,422h60.2"/>
			<path class="st4" d="M171.5,425.3l9.1-3.3l-9.1-3.3V425.3z"/>
		</g>
	</g>
</g>
<g id="Blau" class="st5">
	<path d="M509.1,340.9c0,0.1,0,0.2,0,0.3c0,0.1,0,0.2,0,0.4c0,0.1,0,0.2,0,0.3c0,0.1,0,0.2-0.1,0.2c-0.1,0.1-0.2,0.2-0.3,0.2
		c-0.1,0-0.2,0-0.3,0c-0.1,0-0.2,0-0.3,0c-0.1,0-0.2,0.1-0.3,0.1c0,0.1,0.1,0.2,0.2,0.2c0.1,0,0.2,0,0.3,0.1c0.1,0,0.2,0,0.2,0.1
		s0.1,0.1,0.1,0.3c0,0.2,0,0.4-0.1,0.6s-0.2,0.3-0.3,0.4c-0.1,0.1-0.2,0.2-0.3,0.3c-0.1,0.1-0.2,0.3-0.2,0.5
		c-0.1,0.2-0.1,0.3-0.2,0.4c-0.1,0.1-0.2,0.2-0.3,0.2c-0.1,0-0.2,0.1-0.3,0.2c-0.1,0.1-0.2,0.2-0.3,0.3c-0.1,0.1-0.2,0.2-0.3,0.2
		c0,0-0.1,0-0.1,0c0,0-0.1,0-0.2,0c-0.1,0-0.1,0-0.2,0.1c0,0-0.1,0.1-0.1,0.1c0,0,0,0,0,0s0,0,0,0c-0.1,0.1-0.4,0.3-0.7,0.4
		c-0.3,0.2-0.7,0.3-1.1,0.4c-0.4,0.1-0.9,0.2-1.4,0.3c-0.5,0.1-0.9,0.1-1.3,0.1c-0.7,0-1.5,0-2.2-0.1c-0.7,0-1.4-0.1-2.2-0.1h-2.2
		c0,0-0.1,0-0.1,0.1c-0.1,0.1-0.1,0.1-0.2,0.1c-0.1,0-0.3,0-0.5,0s-0.4-0.1-0.6-0.2c-0.2-0.1-0.3-0.2-0.5-0.3s-0.2-0.2-0.2-0.4
		c0-0.1,0-0.1,0-0.1s0-0.1,0-0.1c0.1-0.3,0.2-0.5,0.4-0.7s0.4-0.3,0.6-0.4c0.2-0.1,0.4-0.2,0.6-0.3c0.2-0.1,0.4-0.3,0.6-0.5
		c0.2-0.2,0.3-0.5,0.4-0.9c0.1-0.4,0.2-0.9,0.2-1.5c0-0.6,0-1.1-0.1-1.7s-0.1-1.1-0.1-1.7c0-1,0-2.1,0.1-3.1c0-1,0.1-2,0.1-3.1
		l0-2.5c0-0.3,0-0.6,0-0.9c0-0.4-0.1-0.7-0.2-1s-0.2-0.6-0.4-0.8c-0.2-0.2-0.5-0.4-0.8-0.4c-0.2,0-0.4-0.1-0.6-0.1
		c-0.2-0.1-0.5-0.2-0.7-0.3c-0.2-0.1-0.4-0.3-0.5-0.5c-0.2-0.2-0.2-0.4-0.2-0.6c0-0.2,0.1-0.3,0.2-0.5s0.2-0.2,0.4-0.3
		c0.2-0.1,0.3-0.1,0.5-0.2s0.3-0.1,0.5-0.1c0.3,0,0.7,0,1,0.1c0.3,0.1,0.7,0.1,1,0.1c0.4,0,0.9,0,1.3-0.1s0.9-0.1,1.3-0.2
		c0.4-0.1,0.9-0.1,1.3-0.2c0.4,0,0.9-0.1,1.4-0.1c0.4,0,0.8,0,1.1,0c0.4,0,0.8,0.1,1.1,0.1c0.1,0.1,0.2,0.2,0.3,0.2
		c0.2,0.1,0.3,0.1,0.5,0.1c0.2,0,0.4,0.1,0.6,0.1c0.2,0,0.3,0.1,0.4,0.1c0.3,0.1,0.5,0.1,0.7,0.2c0.2,0.1,0.4,0.1,0.5,0.2
		s0.3,0.2,0.4,0.4c0.1,0.2,0.2,0.4,0.3,0.6c0,0,0.1,0.1,0.2,0.1c0.1,0.1,0.2,0.1,0.3,0.2c0.1,0.1,0.2,0.1,0.3,0.2
		c0.1,0.1,0.2,0.1,0.2,0.2c0.1,0.1,0.3,0.4,0.4,0.6c0.1,0.3,0.3,0.6,0.4,0.9c0.1,0.3,0.2,0.6,0.3,1c0.1,0.3,0.1,0.6,0.1,0.8
		c0,0.4-0.1,0.8-0.2,1.2c-0.1,0.4-0.2,0.8-0.3,1.2c-0.1,0.2-0.2,0.4-0.3,0.6c-0.1,0.2-0.3,0.4-0.4,0.6c-0.1,0.2-0.3,0.4-0.4,0.6
		c-0.1,0.2-0.2,0.4-0.2,0.7c0,0.3,0.1,0.7,0.2,1c0.1,0.3,0.3,0.6,0.5,0.9c0.1,0.1,0.2,0.3,0.3,0.4c0.1,0.1,0.2,0.2,0.3,0.3
		s0.2,0.2,0.3,0.4c0.1,0.1,0.2,0.3,0.2,0.4c0.1,0.3,0.2,0.7,0.3,1.1S509.1,340.5,509.1,340.9z M506,331c0-0.1,0-0.3,0-0.4
		c0-0.2-0.1-0.3-0.1-0.5c0-0.2-0.1-0.3-0.1-0.5c0-0.2-0.1-0.3-0.1-0.4c0-0.2-0.1-0.3-0.1-0.4c-0.1-0.1-0.1-0.2-0.2-0.3
		c-0.1-0.1-0.2-0.1-0.3-0.2c-0.1-0.1-0.2-0.2-0.3-0.3c-0.3-0.2-0.5-0.4-0.8-0.6c-0.2-0.1-0.5-0.2-0.8-0.3s-0.6-0.1-0.9-0.2
		c-0.3,0-0.6,0-1,0c-0.2,0-0.5,0-0.7,0c-0.3,0-0.5,0-0.7,0.1c0,0-0.1,0-0.1,0.1s0,0.1-0.1,0.1c0,0-0.1,0.1-0.2,0.1
		c-0.1,0-0.2,0-0.5,0c-0.3,0-0.6,0-0.8,0.1c-0.2,0.1-0.4,0.2-0.5,0.4s-0.2,0.3-0.2,0.6c0,0.2-0.1,0.5-0.1,0.8c0,0.4,0,0.7,0,1.1
		c0,0.4,0,0.8-0.1,1.1c0,0.4-0.1,0.7-0.2,1.1c-0.1,0.4-0.2,0.7-0.4,1c0.6,0.2,1.2,0.3,1.8,0.4c0.6,0.1,1.2,0.1,1.8,0.1
		c0.4,0,0.8,0,1.3,0s0.8-0.1,1.3-0.2c0.2,0,0.4-0.1,0.6-0.2s0.5-0.2,0.7-0.3c0.2-0.1,0.5-0.3,0.6-0.4c0.2-0.2,0.3-0.3,0.3-0.5
		c0-0.1,0.1-0.2,0.1-0.4c0.1-0.1,0.1-0.2,0.2-0.3s0.2-0.2,0.2-0.3C506,331.2,506,331.1,506,331z M506.6,341.8c0-0.3,0-0.6-0.1-0.8
		s-0.1-0.6-0.2-0.8c0-0.3-0.1-0.5-0.1-0.6s-0.1-0.3-0.1-0.4c-0.1-0.1-0.1-0.2-0.3-0.3c-0.1-0.1-0.3-0.2-0.5-0.4
		c-0.1-0.2-0.1-0.4-0.2-0.4c-0.1,0-0.1-0.1-0.2-0.1c-0.1,0-0.1,0-0.2,0c-0.1,0-0.1,0-0.2,0l-0.2-0.5c-0.2-0.1-0.4-0.2-0.5-0.3
		c-0.2-0.1-0.4-0.1-0.6-0.1c-0.2,0-0.4-0.1-0.6-0.1c-0.2-0.1-0.4-0.1-0.7-0.1c-0.1,0-0.2,0-0.2,0.1c-0.1,0.1-0.1,0.1-0.1,0.1
		c-0.1,0-0.1,0-0.2,0c-0.1,0-0.2-0.1-0.3-0.1c-0.1,0-0.2-0.1-0.3-0.1c-0.1,0-0.2,0-0.3,0c-0.5,0-1,0.1-1.4,0.2
		c-0.5,0.1-0.9,0.2-1.4,0.3c-0.1,0.2-0.2,0.5-0.3,0.7s-0.2,0.5-0.2,0.8c-0.1,0.3-0.1,0.6-0.2,0.8c0,0.3-0.1,0.5-0.1,0.8
		c0,0.1,0,0.2,0,0.3c0,0.1,0,0.1,0.1,0.2c0,0.1,0.1,0.1,0.1,0.2c0,0.1,0,0.1,0,0.2c0,0.4,0,0.9-0.1,1.3c-0.1,0.4-0.1,0.8-0.1,1.3
		c0,0.3,0,0.5,0.1,0.8s0.2,0.5,0.4,0.7c0.2,0,0.4,0,0.6,0.1s0.4,0.1,0.6,0.1c0.2,0,0.3,0,0.4-0.1s0.3-0.1,0.3-0.1
		c0.1,0,0.2,0,0.2,0.1s0.1,0.1,0.3,0.1h0.1c0-0.1,0.1-0.1,0.2-0.1c0.1,0,0.2-0.1,0.3-0.1c0.1,0,0.2,0,0.4,0c0.1,0,0.3,0,0.4,0
		c0.2,0,0.4,0,0.5,0c0.1,0,0.3,0,0.4,0c0.5-0.1,0.9-0.2,1.3-0.4c0.3-0.1,0.7-0.3,1.1-0.5s0.6-0.4,0.8-0.6c0.1-0.1,0.2-0.2,0.4-0.4
		c0.1-0.2,0.3-0.3,0.4-0.5c0.1-0.2,0.2-0.4,0.3-0.6C506.5,342.1,506.6,342,506.6,341.8z"/>
	<path d="M528.5,346.7c0,0.4-0.1,0.7-0.4,0.9s-0.6,0.4-0.9,0.5c-0.4,0.1-0.7,0.2-1.1,0.2s-0.7,0-1,0c-0.4,0-0.7,0-0.9-0.1
		c-0.2-0.1-0.4-0.1-0.6-0.2c-0.2-0.1-0.3-0.1-0.5-0.2c-0.1-0.1-0.3-0.1-0.4-0.1c-0.2,0-0.4,0-0.5,0.1c-0.2,0.1-0.4,0.1-0.5,0.1
		c-0.1,0-0.2,0-0.3-0.1s-0.1-0.1-0.2-0.2s-0.1-0.1-0.2-0.2c0,0-0.1-0.1-0.2-0.1c-0.1,0-0.1,0-0.2,0.1c0,0.1-0.1,0.1-0.1,0.2
		c-0.1,0.1-0.1,0.1-0.2,0.2c-0.1,0.1-0.3,0.1-0.4,0.1c-0.2,0-0.4,0-0.7-0.1s-0.4-0.1-0.7-0.1s-0.5,0-0.7,0.1
		c-0.2,0.1-0.4,0.1-0.6,0.1c-0.1,0-0.2,0-0.2-0.1s-0.1-0.1-0.1-0.1c-0.2,0-0.4,0-0.6,0.1c-0.2,0.1-0.4,0.1-0.6,0.1
		c-0.1,0-0.2,0-0.3,0c-0.1,0-0.2,0-0.3,0c-0.2,0-0.4,0-0.5,0.1c-0.2,0.1-0.4,0.1-0.7,0.1c-0.1,0-0.3,0-0.6,0c-0.3,0-0.7-0.1-1-0.1
		c-0.3-0.1-0.7-0.1-0.9-0.2c-0.3-0.1-0.4-0.2-0.4-0.3c0-0.3,0.1-0.6,0.2-0.8s0.2-0.5,0.2-0.8v0c-0.1,0-0.2-0.1-0.2-0.2
		c0,0,0.1-0.1,0.1-0.1c0,0,0.1,0,0.2-0.1c0.1,0,0.1,0,0.1-0.1s0.1-0.1,0.1-0.1v-0.1c0.4,0,0.9,0.1,1.3,0.1c0.4,0,0.8,0,1.3,0
		c0.4,0,0.9,0,1.4,0c0.5,0,1-0.1,1.4-0.2c0.4-0.1,0.8-0.3,1.1-0.6c0.3-0.3,0.4-0.6,0.4-1.1v-0.1v-0.3c-0.1-1.2-0.1-2.4-0.2-3.5
		s-0.1-2.3-0.1-3.5c0-0.3,0-0.6-0.1-0.9c0-0.3-0.1-0.6-0.1-0.9c0-0.4,0.1-0.8,0.2-1.1c0.1-0.4,0.3-0.7,0.6-1c0-0.1,0-0.1-0.1-0.1
		c0,0-0.1,0-0.2-0.1s-0.1,0-0.2,0c-0.1,0-0.1,0-0.2,0c-0.1,0-0.1-0.1-0.1-0.2c0-0.1,0-0.2-0.1-0.4c0-0.1,0-0.3,0-0.4
		c0-0.1-0.1-0.2-0.1-0.3c0-0.3,0.1-0.6,0.2-0.9c0.1-0.3,0.1-0.6,0.1-0.9c0-0.2,0-0.4-0.1-0.5c-0.1-0.1-0.1-0.2-0.2-0.3
		c-0.1-0.1-0.1-0.2-0.2-0.2c-0.1-0.1-0.1-0.2-0.1-0.3c0-0.1,0-0.2,0.1-0.2l-0.1,0c-0.1,0-0.2,0-0.2,0.1s-0.1,0.1-0.2,0.2
		s-0.1,0.1-0.2,0.2c-0.1,0.1-0.1,0.1-0.2,0.1c-0.1,0-0.2,0-0.3,0c-0.2,0.1-0.4,0.1-0.5,0.1c-0.4,0-0.8-0.1-1.1-0.2s-0.7-0.2-1.1-0.2
		c-0.2,0-0.4,0-0.6,0c-0.2,0-0.4,0-0.6,0c-0.3,0-0.6,0-0.8-0.1s-0.5-0.2-0.7-0.4v-0.2c0-0.6,0.2-1,0.6-1.3c0.4-0.3,0.8-0.4,1.4-0.4
		c0.4,0,0.7,0,1.1,0.1c0.4,0.1,0.7,0.1,1.1,0.1c0.2,0,0.4,0,0.6-0.1s0.5-0.1,0.7-0.1s0.5-0.1,0.7-0.1c0.2,0,0.5-0.1,0.7-0.1
		c0.4,0,0.7,0.1,1,0.2c0.3,0.2,0.6,0.3,1,0.4l0,0.1c0,0.1,0,0.2,0.1,0.3c0,0.1,0.1,0.2,0.2,0.2c0.1,0.1,0.1,0.2,0.2,0.2
		s0.1,0.2,0.1,0.3c0,0.1,0,0.2,0,0.3c0,0.1,0,0.2,0,0.3c0,0.2,0,0.5,0.1,0.7c0.1,0.2,0.1,0.4,0.1,0.7c0,0.3,0,0.5-0.1,0.8
		c-0.1,0.2-0.1,0.5-0.1,0.8c0,0.3,0,0.6,0.1,0.9c0.1,0.3,0.1,0.6,0.1,0.9c0,0.3,0,0.5-0.1,0.8s-0.1,0.5-0.1,0.7c0,0.2,0,0.4,0.1,0.5
		c0,0.2,0.1,0.4,0.2,0.5s0.1,0.3,0.2,0.5s0.1,0.4,0.1,0.6v0.3c0,0.2,0,0.3,0,0.5s-0.1,0.3-0.2,0.4c0.1,0.2,0.1,0.4,0.2,0.7
		c0.1,0.2,0.1,0.5,0.1,0.7c0,0.1,0,0.2,0,0.3c0,0.1,0,0.2-0.1,0.4c0,0.1-0.1,0.2-0.2,0.3c-0.1,0.1-0.1,0.2-0.2,0.3
		c0.1,0.4,0.2,0.8,0.3,1.2c0,0.4,0.1,0.8,0.1,1.3c0,0.1,0,0.3,0.1,0.5c0,0.2,0.1,0.4,0.1,0.6s0.1,0.4,0.1,0.5c0,0.2,0,0.3,0,0.3
		c0,0.2,0,0.4-0.1,0.5c-0.1,0.2-0.1,0.4-0.1,0.5c0,0.1,0,0.3,0.1,0.4c0.1,0.2,0.2,0.2,0.4,0.2c0.1,0,0.2,0,0.3-0.1s0.2-0.1,0.3-0.2
		c0.1-0.1,0.2-0.1,0.4-0.2c0.1-0.1,0.3-0.1,0.6-0.1c0.3,0,0.5,0,0.8,0.1s0.5,0.1,0.8,0.1c0.2,0,0.4,0,0.6-0.1c0.2,0,0.4-0.1,0.6-0.1
		c0.2,0,0.4-0.1,0.6-0.1c0.2,0,0.4-0.1,0.6-0.1c0.4,0,0.8,0.1,1.1,0.4C528.3,345.9,528.5,346.2,528.5,346.7z M519.2,326.6
		c0,0-0.1-0.1-0.2-0.1c-0.1,0-0.1-0.1-0.2-0.1c-0.1,0-0.1,0-0.1,0.1c0,0-0.1,0.1-0.1,0.2l0.1,0.2c0,0,0.1,0,0.1,0
		c0.1,0,0.2,0,0.2-0.1C519.1,326.7,519.2,326.6,519.2,326.6z M520.2,331.1c0-0.1,0-0.2-0.1-0.3c0-0.1-0.1-0.1-0.2-0.1
		c0,0-0.1,0-0.1,0c0,0-0.1,0-0.1,0v0.7c0.1,0,0.2,0.1,0.2,0.1c0.1,0,0.2,0,0.2-0.1C520.2,331.2,520.2,331.2,520.2,331.1z"/>
	<path d="M547.2,344.7c0,0.2,0,0.4-0.1,0.5c-0.1,0.2-0.1,0.3-0.2,0.5c0,0.2-0.1,0.3-0.1,0.4c0,0.1,0,0.2-0.1,0.3s-0.1,0.1-0.2,0.2
		c-0.1,0.1-0.2,0.1-0.3,0.2c-0.3,0.2-0.7,0.3-1,0.5s-0.7,0.3-1.1,0.3c-0.3,0-0.6-0.1-0.9-0.2c-0.3-0.1-0.5-0.3-0.8-0.5
		c-0.2-0.2-0.4-0.3-0.6-0.5c-0.2-0.2-0.3-0.2-0.5-0.2c-0.1,0-0.3,0-0.4,0.1c-0.1,0.1-0.2,0.2-0.3,0.2s-0.2,0.2-0.3,0.2
		c-0.1,0.1-0.3,0.1-0.5,0.1c-0.2,0-0.3,0-0.5,0.1s-0.3,0.1-0.5,0.2c-0.2,0.1-0.3,0.1-0.5,0.2s-0.3,0.1-0.5,0.2
		c-0.5,0.1-1,0.2-1.5,0.2c-0.5,0-1,0-1.5,0c-0.1,0-0.3,0-0.6,0c-0.3,0-0.5,0-0.8-0.1c-0.3,0-0.5-0.1-0.7-0.2
		c-0.2-0.1-0.3-0.3-0.3-0.5c0,0,0-0.1,0-0.1c-0.1,0.1-0.2,0.2-0.3,0.2c-0.1,0.1-0.2,0.1-0.3,0.1c-0.2,0-0.4-0.1-0.6-0.4
		s-0.5-0.5-0.7-0.8c-0.2-0.3-0.4-0.6-0.6-0.9c-0.2-0.3-0.2-0.5-0.2-0.7c0-0.1,0-0.2,0.1-0.3c0.1-0.1,0.1-0.2,0.1-0.3
		c0-0.2,0-0.3-0.1-0.4s-0.1-0.3-0.1-0.4c0-0.2,0-0.4,0.1-0.6c0.1-0.2,0.2-0.4,0.3-0.7c0.1-0.2,0.2-0.4,0.3-0.6
		c0.1-0.2,0.2-0.4,0.3-0.6c0.1-0.2,0.3-0.4,0.5-0.5c0.2-0.1,0.4-0.2,0.6-0.3c0.2-0.1,0.4-0.2,0.6-0.3c0.2-0.1,0.4-0.2,0.6-0.4
		c0.2,0.2,0.4,0.3,0.6,0.3c0.3,0,0.5,0,0.8-0.1s0.5-0.1,0.8-0.1c0.2,0,0.4,0,0.6,0.1c0.2,0,0.4,0.1,0.6,0.1c0.2,0,0.4,0,0.5-0.1
		c0.1-0.1,0.3-0.2,0.4-0.3c0.2-0.2,0.4-0.3,0.7-0.3c0.3-0.1,0.5-0.1,0.8-0.2c0.3,0,0.6-0.1,0.9-0.2c0.3-0.1,0.5-0.1,0.8-0.2
		s0.4-0.2,0.5-0.4c0.1-0.2,0.2-0.4,0.2-0.7c0-0.3-0.1-0.7-0.3-1.1s-0.5-0.7-0.8-1.1s-0.7-0.6-1-0.8c-0.4-0.2-0.7-0.3-1.1-0.3
		c0,0-0.1,0-0.1,0s-0.1,0-0.1,0c-0.3,0-0.5,0.1-0.9,0.1c-0.3,0-0.6,0.1-0.9,0.1s-0.5,0.2-0.7,0.4c-0.2,0.2-0.3,0.5-0.3,0.8
		c0,0.2,0,0.4,0.1,0.6c0,0.2,0.1,0.4,0.1,0.6c0,0.3-0.1,0.6-0.2,0.8s-0.4,0.4-0.6,0.5c-0.2,0.1-0.5,0.2-0.8,0.3
		c-0.3,0-0.6,0.1-0.8,0.1c-0.3,0-0.6,0-0.8-0.1c-0.2-0.1-0.4-0.3-0.6-0.6c-0.1-0.2-0.2-0.5-0.4-0.7s-0.2-0.5-0.2-0.8
		c0-0.3,0.1-0.6,0.2-0.8c0.1-0.3,0.2-0.5,0.3-0.7c0.1-0.2,0.3-0.5,0.4-0.7c0.1-0.2,0.2-0.5,0.3-0.8c0.1,0,0.2-0.1,0.3-0.1
		s0.3-0.1,0.4-0.1s0.3-0.1,0.5-0.1s0.3-0.1,0.4-0.1c0.3-0.1,0.5-0.2,0.8-0.3c0.2-0.1,0.5-0.2,0.7-0.3c0.3-0.1,0.5-0.2,0.8-0.2
		c0.3-0.1,0.5-0.1,0.8-0.1l0.5,0c0.5,0,0.9,0,1.4,0.1s1,0.2,1.4,0.4c0.5,0.2,0.9,0.4,1.3,0.6c0.4,0.3,0.8,0.6,1.1,0.9
		c0.2,0.3,0.4,0.6,0.6,0.9c0.2,0.4,0.3,0.7,0.4,1.1c0.1,0.4,0.2,0.8,0.2,1.2c0,0.4,0.1,0.8,0.1,1.1c0,0.5,0,0.9,0,1.3
		c0,0.4,0,0.9,0,1.3c0,0.4,0,0.9,0.1,1.3c0,0.4,0.1,0.9,0.2,1.3c0.1,0.4,0.1,0.9,0.2,1.3c0,0.4,0.1,0.8,0.1,1.3
		c0,0.3,0.1,0.4,0.1,0.5c0,0.1,0.1,0.1,0.2,0.1c0.2,0,0.4-0.1,0.6-0.2s0.3-0.3,0.4-0.5c0.1-0.2,0.2-0.3,0.4-0.5
		c0.1-0.2,0.3-0.2,0.5-0.2c0.1,0,0.2,0,0.3,0c0.1,0,0.2,0,0.3,0.1s0.2,0.1,0.2,0.2C547.1,344.5,547.2,344.6,547.2,344.7z
		 M541.8,340.7c0-0.1,0-0.2,0-0.3c0-0.2,0-0.3,0-0.5c0-0.2-0.1-0.3-0.1-0.4c0-0.1-0.1-0.2-0.2-0.2c0,0,0,0-0.1,0c0,0-0.1,0-0.1,0
		c-0.4,0.2-0.8,0.4-1.1,0.6s-0.6,0.3-0.9,0.4c-0.3,0.1-0.6,0.2-0.9,0.2s-0.7,0-1.2,0c-0.1,0-0.2,0-0.5,0.1c-0.3,0.1-0.6,0.1-1,0.2
		c-0.3,0.1-0.7,0.1-1,0.2c-0.3,0.1-0.5,0.1-0.6,0.1c-0.1,0.1-0.2,0.1-0.3,0.2c-0.1,0.1-0.1,0.1-0.1,0.2s-0.1,0.1-0.1,0.2
		s-0.1,0.1-0.2,0.2c-0.1,0.1-0.2,0.2-0.3,0.2s-0.2,0.1-0.3,0.2c-0.2,0.2-0.3,0.4-0.5,0.6c-0.1,0.3-0.2,0.5-0.2,0.8
		c0,0.3,0.1,0.5,0.2,0.8s0.4,0.4,0.6,0.6s0.5,0.3,0.8,0.4c0.3,0.1,0.6,0.2,0.9,0.3s0.6,0.1,0.9,0.1s0.6,0,0.8,0c0.3,0,0.6,0,0.9-0.1
		c0.4,0,0.7-0.1,1.1-0.2c0.4-0.1,0.7-0.2,1-0.3c0.3-0.1,0.6-0.3,0.7-0.5c0.1-0.1,0.1-0.2,0.2-0.2c0-0.1,0.1-0.1,0.1-0.2
		c0-0.1,0.1-0.1,0.1-0.2c0-0.1,0.1-0.2,0.2-0.2c0.2-0.2,0.4-0.4,0.6-0.7c0.1-0.2,0.2-0.5,0.3-0.8c0.1-0.3,0.1-0.5,0.1-0.8
		S541.8,341,541.8,340.7z"/>
	<path d="M568,346.5c0,0.2-0.1,0.4-0.2,0.6s-0.3,0.4-0.5,0.6c-0.2,0.2-0.4,0.3-0.6,0.4c-0.2,0.1-0.4,0.2-0.6,0.2c-0.3,0-0.7,0-1-0.1
		s-0.7-0.1-1-0.1c-0.2,0-0.3,0-0.6,0c-0.2,0-0.4-0.1-0.4-0.2c-0.2,0-0.4-0.1-0.5-0.3c-0.1-0.1-0.2-0.3-0.3-0.5
		c-0.1-0.2-0.2-0.3-0.3-0.5c-0.1-0.2-0.3-0.3-0.5-0.3c-0.6,0.3-1.2,0.5-1.6,0.8s-0.9,0.5-1.4,0.7c-0.5,0.2-0.9,0.3-1.5,0.5
		c-0.5,0.1-1.1,0.2-1.9,0.2c-0.3,0-0.5,0-0.7,0s-0.2-0.1-0.3-0.2c-0.1-0.1-0.1-0.2-0.2-0.3c-0.1-0.1-0.2-0.3-0.3-0.4
		c-0.1-0.1-0.2-0.1-0.3-0.2c-0.1,0-0.2,0-0.2,0h-0.1c-0.1,0-0.2,0-0.3-0.1c-0.1,0-0.1-0.1-0.2-0.3c0-0.1-0.1-0.3-0.2-0.4
		c-0.1-0.2-0.2-0.3-0.3-0.5c-0.1-0.2-0.3-0.3-0.4-0.5c-0.1-0.1-0.2-0.2-0.4-0.3l0-1.6c0-1.1,0-2.1,0.1-3.2s0.1-2.1,0.1-3.2
		c0-0.2,0-0.4,0-0.7c0-0.3,0-0.6-0.1-0.9s-0.1-0.6-0.2-0.8s-0.2-0.4-0.4-0.4c-0.2-0.1-0.5-0.1-0.8-0.1c-0.3,0-0.5,0-0.8,0
		s-0.5,0-0.7-0.1c-0.2-0.1-0.5-0.2-0.7-0.4c-0.1-0.1-0.2-0.3-0.3-0.4s-0.2-0.4-0.2-0.5c0-0.3,0.1-0.5,0.3-0.7
		c0.2-0.2,0.5-0.3,0.8-0.5c0.3-0.1,0.7-0.2,1-0.3c0.3-0.1,0.6-0.1,0.8-0.1c0.6,0,1.2,0.1,1.7,0.3c0.5,0.2,1,0.5,1.5,0.9
		c0,0,0,0,0,0.1c0,0,0,0,0,0c0,0.3,0.1,0.6,0.1,0.9c0.1,0.3,0.1,0.6,0.1,0.9c0,0.2,0,0.3-0.1,0.5c0,0.2-0.1,0.3-0.1,0.5
		c0,0.2,0,0.4,0.1,0.6c0,0.2,0.1,0.4,0.1,0.5c0,0.1,0,0.2,0,0.4c0,0.1,0,0.2,0,0.4c0,0.3,0,0.7,0.1,1c0.1,0.3,0.1,0.6,0.1,1
		c0,0.3,0,0.6-0.1,0.8c-0.1,0.3-0.1,0.6-0.2,0.8s-0.2,0.6-0.2,0.8c-0.1,0.3-0.1,0.6-0.1,0.8c0,0.4,0.1,0.8,0.2,1.1
		c0.2,0.3,0.4,0.6,0.6,0.9s0.6,0.5,0.9,0.6s0.7,0.2,1.1,0.2c0.3,0,0.6,0,0.8-0.1c0.2-0.1,0.4-0.1,0.5-0.2c0.1-0.1,0.2-0.2,0.3-0.2
		c0.1-0.1,0.2-0.1,0.3-0.1c0.1,0,0.2,0,0.2,0c0.1,0,0.1,0,0.2,0c0.2,0,0.3,0,0.4-0.1c0.1-0.1,0.2-0.1,0.3-0.2
		c0.1-0.1,0.2-0.2,0.2-0.3c0.1-0.1,0.2-0.1,0.3-0.2c0.2-0.1,0.5-0.1,0.6-0.2c0.2-0.1,0.3-0.3,0.3-0.6c0-0.1,0-0.1,0-0.1
		c0,0,0.1-0.1,0.2-0.1c0.1,0,0.1,0,0.1,0c0,0,0.1,0.1,0.1,0.1c0.1,0,0.1-0.1,0.1-0.2c0-0.1,0-0.1,0.1-0.2c0.1-0.2,0.2-0.4,0.3-0.5
		c0.1-0.2,0.2-0.3,0.2-0.5c0-0.2,0.1-0.4,0.2-0.6s0.1-0.4,0.1-0.6c0-0.2,0-0.3-0.1-0.5c-0.1-0.1-0.1-0.3-0.1-0.5
		c0-0.2,0-0.4,0.1-0.6c0.1-0.2,0.1-0.4,0.1-0.6c-0.1-0.1-0.1-0.2-0.2-0.3c-0.1-0.1-0.1-0.2-0.1-0.3c0-0.2,0-0.3,0.1-0.4
		c0.1-0.1,0.1-0.1,0.1-0.2c0-0.1,0-0.2-0.1-0.3c0-0.1-0.1-0.2-0.2-0.3c-0.1-0.1-0.1-0.2-0.2-0.3c0-0.1-0.1-0.2-0.1-0.3
		c0-0.1,0-0.2,0.1-0.3s0.1-0.2,0.1-0.3c0-0.2,0-0.3-0.1-0.5s-0.2-0.2-0.3-0.3c-0.1-0.1-0.3-0.2-0.4-0.2s-0.3-0.1-0.5-0.1
		c-0.3,0-0.5,0-0.7,0s-0.4,0-0.5-0.1c-0.1,0-0.3-0.1-0.4-0.3c-0.1-0.1-0.2-0.3-0.4-0.6c-0.1-0.2-0.1-0.3-0.1-0.4
		c0-0.3,0.1-0.5,0.3-0.6c0.2-0.2,0.5-0.3,0.8-0.4c0.3-0.1,0.6-0.1,0.9-0.2c0.3,0,0.6,0,0.8,0c0.2,0,0.3,0,0.5,0c0.2,0,0.3,0,0.5,0
		c0.2,0,0.4,0,0.5-0.1s0.4-0.1,0.5-0.1c0.3,0,0.5,0.1,0.6,0.2s0.3,0.3,0.4,0.6c0.1,0.2,0.2,0.5,0.2,0.8s0,0.6,0,0.9
		c0,0.4,0,0.8,0,1.1c0,0.4,0,0.6,0,0.9c0,0.5,0,0.9,0.1,1.3c0.1,0.4,0.1,0.8,0.1,1.1c0,0.1,0,0.2-0.1,0.3c0,0.1-0.1,0.2-0.2,0.3
		c-0.1,0.1-0.1,0.2-0.2,0.3s-0.1,0.2-0.1,0.3c0,0.1,0,0.2,0,0.2l0.1,0.9c-0.1,0-0.1,0.1-0.1,0.2s0,0.1,0,0.2c0,0.2,0,0.3,0.1,0.5
		s0.1,0.3,0.1,0.5c0,0.2,0,0.4-0.1,0.6c0,0.2-0.1,0.4-0.1,0.6c0,0.5,0.2,0.9,0.5,1.1c0.3,0.3,0.7,0.4,1.2,0.4c0.3,0,0.5,0,0.8-0.1
		c0.1,0.2,0.2,0.3,0.3,0.4s0.3,0.2,0.4,0.4c0.1,0.1,0.2,0.3,0.3,0.4C567.9,346.1,568,346.3,568,346.5z"/>
</g>
<g id="Gelb" class="st5">
	<path d="M510.1,419.8c0,0.1,0,0.2,0,0.3s-0.1,0.2-0.1,0.4c0,0.1-0.1,0.2-0.2,0.3c-0.1,0.1-0.1,0.1-0.2,0.1c0,0-0.1,0-0.1,0
		c0,0-0.1,0-0.1,0c-0.1,0-0.1,0-0.2,0.1c-0.1,0.1-0.1,0.2-0.2,0.2s-0.2,0.2-0.2,0.2c-0.1,0.1-0.2,0.1-0.3,0.1c-0.1,0-0.1,0-0.2,0
		c0,0.2,0.1,0.4,0.1,0.6s0,0.4,0,0.6c0,0.3,0,0.7-0.1,1c0,0.3-0.1,0.7-0.1,1s-0.1,0.7-0.1,1s-0.1,0.7-0.1,1c0,0.4,0,0.8,0.1,1.2
		c0.1,0.4,0.1,0.8,0.1,1.2c0,0.2,0,0.4,0,0.5s-0.1,0.4-0.2,0.5c-0.1,0.2-0.2,0.3-0.3,0.4c-0.1,0.1-0.3,0.2-0.5,0.2
		c-0.3,0-0.5-0.1-0.7-0.3s-0.3-0.4-0.4-0.6c-0.1-0.2-0.2-0.4-0.3-0.6s-0.2-0.3-0.4-0.3c-0.1,0-0.2,0-0.3,0.1
		c-0.1,0.1-0.2,0.2-0.4,0.3c-0.1,0.1-0.3,0.2-0.5,0.3s-0.3,0.2-0.5,0.2c-0.2,0-0.3,0.1-0.4,0.2c-0.1,0.1-0.2,0.1-0.2,0.2
		c-0.1,0.1-0.2,0.1-0.3,0.2s-0.4,0.1-0.8,0.1c-0.2,0-0.5,0-0.7,0c-0.2,0-0.5,0-0.7,0c-0.2,0-0.3,0-0.5,0s-0.3,0-0.5,0
		c-0.3,0-0.5,0-0.7-0.1c-0.2,0-0.3-0.1-0.5-0.2s-0.3-0.2-0.4-0.2s-0.3-0.2-0.6-0.2c-0.2-0.1-0.3-0.1-0.4-0.1c-0.1,0-0.2-0.1-0.3-0.1
		c-0.1,0-0.2-0.1-0.3-0.2c-0.1-0.1-0.2-0.2-0.3-0.3c-0.1-0.1-0.2-0.1-0.3-0.2c-0.1-0.1-0.2-0.1-0.3-0.2s-0.2-0.1-0.3-0.2
		s-0.1-0.2-0.1-0.3c0-0.1,0-0.2,0-0.2c0,0-0.1-0.1-0.1-0.1s-0.1,0-0.1-0.1c0,0-0.1,0-0.2-0.1c-0.1-0.2-0.2-0.4-0.3-0.6
		s-0.1-0.4-0.2-0.6c-0.1-0.2-0.1-0.4-0.2-0.6s-0.2-0.4-0.4-0.5c0-0.1,0-0.2,0-0.4c0-0.2,0-0.4-0.1-0.7c-0.1-0.2-0.2-0.4-0.3-0.6
		s-0.2-0.4-0.3-0.6c-0.1-0.2-0.1-0.5-0.1-0.7c0-0.2,0-0.3,0-0.5c0-0.2,0-0.3,0-0.5c0-0.2,0-0.4-0.1-0.6c0-0.2-0.1-0.4-0.2-0.6
		c-0.1-0.2-0.1-0.4-0.2-0.6c0-0.2-0.1-0.4-0.1-0.6c0-0.1,0-0.1,0-0.2c0-0.1,0-0.1,0-0.2c0.1-0.4,0.1-0.8,0.1-1.2
		c0-0.4,0.1-0.8,0.1-1.2s0.1-0.8,0.1-1.2s0.1-0.8,0.2-1.2c0.1-0.4,0.2-0.7,0.2-1.1c0.1-0.4,0.1-0.7,0.1-1.1c0.1-0.1,0.2-0.2,0.3-0.4
		c0.1-0.1,0.3-0.3,0.4-0.4s0.3-0.3,0.4-0.4s0.2-0.3,0.2-0.4c0-0.1,0.1-0.3,0.3-0.5c0.1-0.2,0.3-0.4,0.5-0.6s0.4-0.4,0.6-0.5
		c0.2-0.2,0.4-0.2,0.5-0.3c0.1,0,0.1,0,0.2,0c0.1,0,0.2,0,0.2,0c0.1,0,0.1-0.1,0.2-0.1s0.1-0.1,0.1-0.2c0-0.1,0-0.2,0-0.2
		c0.6-0.1,1.2-0.1,1.7-0.3c0.6-0.1,1.1-0.2,1.7-0.2c0.1,0,0.3,0,0.6,0s0.6,0,0.8,0.1c0.3,0.1,0.5,0.1,0.8,0.3s0.3,0.3,0.3,0.5v0.1
		c0,0,0.1,0,0.1,0c0,0,0.1,0,0.1,0c0.2,0,0.3,0,0.5,0.1c0.2,0.1,0.3,0.1,0.5,0.1c0.2,0,0.4,0,0.5,0c0.2,0,0.4,0,0.6-0.1
		s0.4-0.1,0.5-0.2c0.2-0.1,0.3-0.2,0.4-0.3c0.2,0,0.4,0.1,0.6,0.3c0.2,0.2,0.3,0.5,0.4,0.8c0.1,0.3,0.1,0.6,0.2,0.9
		c0,0.3,0.1,0.6,0.1,0.7c0,0.3,0,0.5-0.1,0.8c0,0.3-0.1,0.5-0.2,0.8c0,0.1,0.1,0.3,0.1,0.4c0.1,0.1,0.1,0.2,0.2,0.3
		c0.1,0.1,0.2,0.2,0.2,0.3s0.1,0.2,0.1,0.4c-0.1,0.2-0.1,0.5-0.1,0.8c0,0.4,0,0.7-0.1,1.1c0,0.4-0.1,0.7-0.3,0.9
		c-0.1,0.3-0.4,0.4-0.7,0.4c-0.2,0-0.4-0.1-0.5-0.2c-0.2-0.1-0.3-0.3-0.3-0.5l0,0c0.1,0,0.2-0.1,0.2-0.2c0,0,0-0.1-0.1-0.1
		s-0.1-0.1-0.2-0.2c-0.1-0.1-0.2-0.1-0.3-0.2c-0.1-0.1-0.2-0.1-0.2-0.2c-0.1-0.1-0.2-0.2-0.2-0.4c-0.1-0.2-0.1-0.4-0.2-0.6
		c-0.1-0.2-0.1-0.4-0.1-0.6c0-0.2,0-0.4,0-0.6c0-0.1,0-0.1,0-0.1s0-0.1,0-0.1l0,0c0,0-0.1-0.1-0.2-0.2c-0.1-0.1-0.2-0.3-0.3-0.4
		s-0.2-0.3-0.4-0.5c-0.1-0.1-0.2-0.2-0.2-0.3c-0.2-0.2-0.4-0.4-0.7-0.6c-0.2-0.2-0.5-0.4-0.7-0.6c-0.1,0.1-0.2,0.1-0.3,0.1
		c-0.1,0-0.2,0.1-0.3,0.1c-0.1,0-0.2,0-0.2-0.1c-0.1,0-0.1-0.1-0.2-0.1c-0.1,0-0.1-0.1-0.2-0.1c-0.1,0-0.2-0.1-0.3-0.1
		c-0.2,0-0.5,0-0.7,0.1c-0.2,0.1-0.5,0.1-0.7,0.1c-0.2,0-0.5,0-0.7-0.1c-0.2-0.1-0.5-0.1-0.8-0.1c0,0-0.1,0-0.1,0c0,0-0.1,0-0.1,0
		c0,0.1,0,0.2,0.1,0.3c0,0.1,0.1,0.2,0.1,0.3c0,0.2-0.1,0.3-0.2,0.4c-0.1,0.1-0.3,0.3-0.4,0.4c-0.2,0.1-0.3,0.3-0.5,0.4
		c-0.2,0.1-0.3,0.2-0.4,0.3c-0.1,0.2-0.2,0.3-0.3,0.5c-0.1,0.2-0.1,0.3-0.2,0.5c-0.1,0.2-0.1,0.3-0.3,0.5s-0.2,0.3-0.4,0.4
		c0.1,0.2,0.1,0.4,0.1,0.6c0,0.2,0,0.3,0,0.4s0,0.3,0,0.4c0,0.3,0,0.7,0.1,1s0.1,0.7,0.1,1c0,0.3,0,0.6-0.1,0.8
		c0,0.3-0.1,0.5-0.2,0.8c-0.1,0.3-0.1,0.5-0.2,0.8c0,0.3-0.1,0.6-0.1,0.8c0,0.2,0,0.5,0.1,0.7s0.1,0.4,0.2,0.7s0.1,0.4,0.2,0.6
		c0.1,0.2,0.1,0.4,0.1,0.5c0,0.1,0,0.2,0,0.4c0,0.1,0,0.2,0,0.4c0,0.5,0.1,0.9,0.3,1.2c0.2,0.3,0.4,0.6,0.7,0.9
		c0.3,0.3,0.5,0.6,0.8,0.8s0.4,0.6,0.5,1c0.2,0,0.3,0,0.5,0c0.2,0,0.4,0,0.6,0.1c0.2,0,0.4,0.1,0.6,0.2c0.2,0.1,0.4,0.1,0.6,0.2
		c0.2,0,0.4,0.1,0.6,0.1c0.4,0,0.8-0.1,1.3-0.3c0.4-0.2,0.8-0.4,1.2-0.7s0.7-0.6,0.9-1c0.3-0.4,0.5-0.7,0.5-1.1
		c0.1-0.4,0.2-0.8,0.4-1.1c0.1-0.1,0.1-0.2,0.2-0.2c0.1,0,0.1-0.1,0.2-0.1c0.1,0,0.1,0,0.1,0s0,0,0-0.1c0-0.1,0-0.1-0.1-0.2
		s-0.1-0.1-0.1-0.2c0,0,0-0.1,0.1-0.1c0,0,0.1-0.1,0.2-0.2c0.1-0.1,0.1-0.1,0.2-0.2c0-0.1,0.1-0.2,0.1-0.3c0-0.2-0.1-0.4-0.2-0.5
		c-0.1-0.1-0.3-0.3-0.5-0.4s-0.4-0.2-0.6-0.3c-0.2-0.1-0.4-0.2-0.6-0.3c-0.2-0.1-0.4-0.3-0.5-0.4c-0.1-0.2-0.2-0.4-0.2-0.7
		c0-0.2,0.1-0.4,0.2-0.6s0.3-0.3,0.5-0.4c0.2-0.1,0.4-0.2,0.6-0.2c0.2,0,0.4-0.1,0.6-0.1c0.1,0,0.3-0.1,0.4-0.1
		c0.2-0.1,0.3-0.1,0.5-0.2c0.2-0.1,0.3-0.1,0.4-0.2c0.1,0,0.3-0.1,0.4-0.1c0.2,0,0.3,0,0.5,0.1c0.2,0.1,0.3,0.1,0.5,0.1
		c0.2,0,0.5,0.1,0.8,0.1c0.3,0.1,0.6,0.1,0.9,0.2c0.3,0.1,0.5,0.3,0.7,0.4S510.1,419.5,510.1,419.8z"/>
	<path d="M527.7,427.3c0,0.3,0,0.5-0.1,0.7c-0.1,0.2-0.2,0.4-0.4,0.5c-0.1,0.2-0.3,0.3-0.5,0.5c-0.2,0.1-0.4,0.3-0.6,0.5
		c-0.2,0.1-0.3,0.2-0.4,0.3c-0.1,0.1-0.2,0.1-0.3,0.2s-0.2,0.1-0.4,0.1s-0.3,0.1-0.4,0.2c-0.2,0.1-0.4,0.2-0.5,0.3s-0.3,0.2-0.4,0.3
		c-0.1,0.1-0.3,0.1-0.5,0.2c-0.2,0-0.4,0.1-0.6,0.1c-0.4,0.1-0.9,0.1-1.3,0.2c-0.4,0.1-0.9,0.1-1.3,0.1c-0.1,0-0.2,0-0.3-0.1
		c-0.1,0-0.2-0.1-0.3-0.1c-0.1,0-0.3-0.1-0.4-0.1s-0.3-0.1-0.5-0.1c-0.2,0-0.4,0-0.5-0.1c-0.1-0.1-0.2-0.1-0.3-0.2
		c-0.1-0.1-0.2-0.2-0.3-0.3c-0.1-0.1-0.2-0.2-0.4-0.3c-0.6-0.3-1.2-0.6-1.7-1.1c-0.5-0.4-0.8-0.9-1.2-1.4s-0.6-1.1-0.8-1.6
		s-0.4-1.2-0.5-1.9c-0.1-0.5-0.2-0.9-0.2-1.4c0-0.6,0.1-1.1,0.4-1.6c-0.1-0.3-0.2-0.6-0.2-0.9c0-0.2,0.1-0.5,0.2-0.9
		c0.1-0.4,0.3-0.8,0.5-1.2c0.2-0.4,0.4-0.8,0.6-1.1s0.4-0.5,0.6-0.6c0.2-0.1,0.3-0.1,0.3-0.1c0.1,0,0.1-0.1,0.1-0.3
		c0-0.1,0.1-0.2,0.2-0.3c0.1-0.1,0.2-0.2,0.4-0.2c0.1-0.1,0.3-0.1,0.4-0.1c0.1,0,0.3-0.1,0.4-0.1c0.4-0.2,0.8-0.4,1.1-0.5
		s0.7-0.2,1.1-0.3s0.7-0.2,1.1-0.2c0.4,0,0.8-0.1,1.2-0.1c0.2,0,0.5,0,0.7,0.1s0.4,0.1,0.7,0.3s0.4,0.2,0.6,0.3
		c0.2,0.1,0.4,0.2,0.6,0.4h0c0.2,0,0.3,0.1,0.5,0.1s0.3,0.1,0.5,0.1c0.2,0.2,0.3,0.4,0.6,0.5c0.2,0.2,0.5,0.3,0.7,0.5
		c0.2,0.2,0.4,0.4,0.6,0.6s0.3,0.5,0.3,0.7c0,0,0,0.1,0,0.1c0,0,0,0.1,0,0.1l0.1-0.1c0,0,0.1,0.1,0.1,0.2c0,0.1,0.1,0.2,0.1,0.3
		s0.1,0.2,0.1,0.3s0,0.2,0,0.2c0.1,0.1,0.2,0.3,0.3,0.3c0.1,0.1,0.3,0.2,0.3,0.4c-0.1,0.1-0.2,0.2-0.2,0.4c0,0.2,0,0.4,0.1,0.5
		s0.1,0.4,0.1,0.5c0,0.2,0,0.4,0,0.6c0,0.2,0,0.4,0,0.6c0,0.2-0.1,0.3-0.2,0.4c-0.1,0.1-0.3,0.2-0.4,0.2s-0.3,0.1-0.4,0.2
		c-0.1,0.1-0.2,0.2-0.2,0.3c0,0.1-0.1,0.1-0.2,0.1c-0.1,0-0.2,0-0.3,0c-0.5,0-0.9-0.1-1.4-0.2c-0.5-0.1-0.9-0.2-1.4-0.2
		c-0.5,0-1,0-1.5,0.1c-0.5,0.1-1,0.1-1.5,0.1c-0.4,0-0.8,0-1.1,0s-0.7,0-1.1,0c-0.1,0-0.3,0-0.5,0.1s-0.6,0.1-0.8,0.1
		s-0.6,0.1-0.8,0.2c-0.3,0.1-0.5,0.2-0.6,0.2c0,0.1,0,0.1,0,0.2c0,0.5,0.1,1,0.4,1.6s0.7,1,1.2,1.5c0.5,0.4,1,0.8,1.6,1.1
		c0.6,0.3,1.2,0.4,1.8,0.4c0.4,0,0.7,0,1.1,0c0.4,0,0.7,0.1,1,0.2c0.3-0.1,0.6-0.3,0.8-0.5c0.2-0.2,0.5-0.4,0.7-0.6
		c0.2-0.2,0.4-0.4,0.7-0.6s0.4-0.4,0.7-0.6c0,0,0.1-0.1,0.3-0.1c0.2,0,0.3-0.1,0.5-0.1c0.2,0,0.4,0,0.6-0.1c0.2,0,0.3,0,0.4,0
		c0.2,0,0.5,0,0.7,0.1C527.6,426.9,527.7,427.1,527.7,427.3z M525.2,420.8c0-0.2,0-0.3-0.1-0.5c-0.1-0.2-0.1-0.3-0.1-0.5
		c-0.1-0.3-0.1-0.6-0.1-0.9c0-0.3,0-0.6-0.1-0.9h0c0,0.1,0,0.1-0.1,0.2c0,0.1-0.1,0.1-0.2,0.1c-0.1,0-0.3,0-0.4-0.1
		c-0.1-0.1-0.2-0.1-0.3-0.2c-0.4-0.2-0.8-0.4-1.1-0.5c-0.3-0.2-0.7-0.3-1-0.4s-0.7-0.2-1.1-0.3s-0.8-0.1-1.3-0.1c0,0-0.1,0-0.1,0
		c0,0-0.1,0-0.1,0.1l0.1,0.2l-0.1,0c-0.3,0.1-0.5,0.1-0.7,0.2s-0.4,0.1-0.5,0.2c-0.2,0.1-0.3,0.2-0.4,0.3s-0.3,0.3-0.6,0.5
		c-0.1,0.1-0.2,0.2-0.3,0.2c-0.1,0-0.2,0.1-0.4,0.1c-0.1,0-0.2,0.1-0.4,0.1s-0.2,0.1-0.3,0.2c-0.1,0.3-0.2,0.5-0.3,0.8
		c-0.1,0.3-0.2,0.5-0.2,0.8c0,0.2,0.1,0.3,0.2,0.4c0.1,0.1,0.3,0.2,0.5,0.3c0.2,0.1,0.4,0.2,0.7,0.2c0.3,0.1,0.5,0.1,0.8,0.1
		c0.2,0,0.5,0.1,0.7,0.1c0.2,0,0.4,0,0.5,0c0.4,0,0.8,0,1.2-0.1c0.4-0.1,0.8-0.1,1.2-0.1c0.4,0,0.8,0,1.3,0.1c0.4,0,0.8,0.1,1.3,0.1
		c0.1,0,0.3,0,0.5,0s0.4,0,0.6-0.1c0.2,0,0.4-0.1,0.5-0.2C525.2,421,525.2,420.9,525.2,420.8z"/>
	<path d="M546.9,429.9c0,0.4-0.1,0.7-0.4,0.9c-0.3,0.2-0.6,0.4-0.9,0.5c-0.4,0.1-0.7,0.2-1.1,0.2s-0.7,0-1,0c-0.4,0-0.6,0-0.9-0.1
		c-0.2-0.1-0.4-0.1-0.6-0.2c-0.2-0.1-0.3-0.1-0.5-0.2c-0.1-0.1-0.3-0.1-0.4-0.1c-0.2,0-0.4,0-0.5,0.1c-0.2,0.1-0.4,0.1-0.5,0.1
		c-0.1,0-0.2,0-0.3-0.1s-0.1-0.1-0.2-0.2c-0.1-0.1-0.1-0.1-0.2-0.2c0,0-0.1-0.1-0.2-0.1c-0.1,0-0.1,0-0.2,0.1c0,0.1-0.1,0.1-0.1,0.2
		c-0.1,0.1-0.1,0.1-0.2,0.2c-0.1,0.1-0.3,0.1-0.4,0.1c-0.2,0-0.4,0-0.7-0.1s-0.4-0.1-0.7-0.1s-0.5,0-0.7,0.1s-0.4,0.1-0.6,0.1
		c-0.1,0-0.2,0-0.2-0.1c0-0.1-0.1-0.1-0.1-0.1c-0.2,0-0.4,0-0.6,0.1c-0.2,0.1-0.4,0.1-0.6,0.1c-0.1,0-0.2,0-0.3,0
		c-0.1,0-0.2,0-0.3,0c-0.2,0-0.4,0-0.5,0.1c-0.2,0.1-0.4,0.1-0.7,0.1c-0.1,0-0.3,0-0.6,0c-0.3,0-0.7-0.1-1-0.1
		c-0.3-0.1-0.7-0.1-0.9-0.2c-0.3-0.1-0.4-0.2-0.4-0.3c0-0.3,0.1-0.6,0.2-0.8s0.2-0.5,0.2-0.8v0c-0.1,0-0.2-0.1-0.2-0.2
		c0,0,0.1-0.1,0.1-0.1c0,0,0.1,0,0.2-0.1c0.1,0,0.1,0,0.1-0.1c0,0,0.1-0.1,0.1-0.1v-0.1c0.4,0,0.9,0.1,1.3,0.1s0.8,0,1.3,0
		c0.4,0,0.9,0,1.4,0c0.5,0,1-0.1,1.4-0.2c0.4-0.1,0.8-0.3,1.1-0.6c0.3-0.3,0.4-0.6,0.4-1.1v-0.1v-0.3c-0.1-1.2-0.1-2.4-0.2-3.5
		c-0.1-1.1-0.1-2.3-0.1-3.5c0-0.3,0-0.6-0.1-0.9s-0.1-0.6-0.1-0.9c0-0.4,0.1-0.8,0.2-1.1c0.1-0.4,0.3-0.7,0.6-1c0-0.1,0-0.1-0.1-0.1
		c0,0-0.1,0-0.2-0.1c-0.1,0-0.1,0-0.2,0c-0.1,0-0.1,0-0.2,0c-0.1,0-0.1-0.1-0.1-0.2c0-0.1,0-0.2-0.1-0.4c0-0.1,0-0.3,0-0.4
		c0-0.1-0.1-0.2-0.1-0.3c0-0.3,0.1-0.6,0.2-0.9s0.1-0.6,0.1-0.9c0-0.2,0-0.4-0.1-0.5c-0.1-0.1-0.1-0.2-0.2-0.3
		c-0.1-0.1-0.1-0.2-0.2-0.2c-0.1-0.1-0.1-0.2-0.1-0.3c0-0.1,0-0.2,0.1-0.2l-0.1,0c-0.1,0-0.2,0-0.2,0.1c-0.1,0.1-0.1,0.1-0.2,0.2
		c0,0.1-0.1,0.1-0.2,0.2c-0.1,0.1-0.1,0.1-0.2,0.1c-0.1,0-0.2,0-0.3,0c-0.2,0.1-0.4,0.1-0.5,0.1c-0.4,0-0.8-0.1-1.1-0.2
		s-0.7-0.2-1.1-0.2c-0.2,0-0.4,0-0.6,0c-0.2,0-0.4,0-0.6,0c-0.3,0-0.6,0-0.8-0.1c-0.3-0.1-0.5-0.2-0.7-0.4V410c0-0.6,0.2-1,0.6-1.3
		c0.4-0.3,0.8-0.4,1.4-0.4c0.4,0,0.8,0,1.1,0.1c0.4,0.1,0.7,0.1,1.1,0.1c0.2,0,0.4,0,0.6-0.1c0.2,0,0.5-0.1,0.7-0.1s0.5-0.1,0.7-0.1
		c0.2,0,0.5-0.1,0.7-0.1c0.4,0,0.7,0.1,1,0.2s0.6,0.3,1,0.4l0,0.1c0,0.1,0,0.2,0.1,0.3c0,0.1,0.1,0.2,0.2,0.2
		c0.1,0.1,0.1,0.2,0.2,0.2c0,0.1,0.1,0.2,0.1,0.3c0,0.1,0,0.2,0,0.3c0,0.1,0,0.2,0,0.3c0,0.2,0,0.5,0.1,0.7s0.1,0.4,0.1,0.7
		c0,0.3,0,0.5-0.1,0.8c-0.1,0.2-0.1,0.5-0.1,0.8c0,0.3,0,0.6,0.1,0.9c0.1,0.3,0.1,0.6,0.1,0.9c0,0.3,0,0.5-0.1,0.8
		c-0.1,0.2-0.1,0.5-0.1,0.7c0,0.2,0,0.4,0.1,0.5c0,0.2,0.1,0.4,0.2,0.5c0.1,0.2,0.1,0.3,0.2,0.5c0,0.2,0.1,0.4,0.1,0.6v0.3
		c0,0.2,0,0.3,0,0.5c0,0.2-0.1,0.3-0.2,0.4c0.1,0.2,0.1,0.4,0.2,0.7c0.1,0.2,0.1,0.5,0.1,0.7c0,0.1,0,0.2,0,0.3c0,0.1,0,0.2-0.1,0.4
		c0,0.1-0.1,0.2-0.2,0.3s-0.1,0.2-0.2,0.3c0.1,0.4,0.2,0.8,0.3,1.2c0,0.4,0.1,0.8,0.1,1.3c0,0.1,0,0.3,0.1,0.5
		c0,0.2,0.1,0.4,0.1,0.6s0.1,0.4,0.1,0.5c0,0.2,0,0.3,0,0.3c0,0.2,0,0.4-0.1,0.5c-0.1,0.2-0.1,0.4-0.1,0.5c0,0.1,0,0.3,0.1,0.4
		s0.2,0.2,0.4,0.2c0.1,0,0.2,0,0.3-0.1c0.1-0.1,0.2-0.1,0.3-0.2s0.2-0.1,0.4-0.2c0.1-0.1,0.3-0.1,0.6-0.1c0.3,0,0.5,0,0.8,0.1
		c0.2,0.1,0.5,0.1,0.8,0.1c0.2,0,0.4,0,0.6-0.1s0.4-0.1,0.6-0.1c0.2,0,0.4-0.1,0.6-0.1s0.4-0.1,0.6-0.1c0.4,0,0.8,0.1,1.1,0.4
		C546.7,429,546.9,429.4,546.9,429.9z M537.6,409.7c0,0-0.1-0.1-0.2-0.1s-0.1-0.1-0.2-0.1c-0.1,0-0.1,0-0.1,0.1c0,0-0.1,0.1-0.1,0.2
		l0.1,0.2c0,0,0.1,0,0.1,0c0.1,0,0.2,0,0.2-0.1C537.5,409.8,537.6,409.8,537.6,409.7z M538.6,414.2c0-0.1,0-0.2-0.1-0.3
		s-0.1-0.1-0.2-0.1c0,0-0.1,0-0.1,0s-0.1,0-0.1,0v0.7c0.1,0,0.2,0.1,0.2,0.1c0.1,0,0.2,0,0.2-0.1
		C538.6,414.4,538.6,414.3,538.6,414.2z"/>
	<path d="M564.4,422.4c0,0.2,0,0.3-0.1,0.5c-0.1,0.1-0.2,0.2-0.5,0.2c0.1,0.2,0.2,0.4,0.3,0.6c0.1,0.2,0.2,0.4,0.2,0.6
		c0,0.2,0,0.3-0.1,0.4c0,0.1-0.1,0.3-0.2,0.4c-0.1,0.1-0.1,0.3-0.2,0.4c-0.1,0.1-0.1,0.3-0.1,0.4c-0.1,0.2-0.2,0.5-0.4,0.9
		c-0.2,0.4-0.4,0.8-0.6,1.2c-0.2,0.4-0.5,0.8-0.7,1.2c-0.2,0.4-0.4,0.6-0.6,0.8c-0.1,0.1-0.2,0.2-0.4,0.2c-0.1,0-0.3,0.1-0.4,0.1
		c-0.1,0-0.3,0-0.4,0.1c-0.1,0-0.3,0.1-0.4,0.1c-0.3,0.1-0.5,0.3-0.7,0.4c-0.2,0.2-0.5,0.2-0.8,0.2c-0.1,0-0.2,0-0.3-0.1
		s-0.2-0.1-0.3-0.2s-0.2-0.1-0.3-0.2c-0.1-0.1-0.2-0.1-0.3-0.1c-0.1,0.1-0.3,0.2-0.5,0.2s-0.4,0.1-0.7,0.1s-0.5,0.1-0.7,0.1
		c-0.2,0-0.4,0-0.6,0c-0.5,0-1-0.1-1.4-0.4s-0.7-0.6-1-1c-0.1,0-0.2,0.1-0.2,0.1s-0.2,0.1-0.3,0.2s-0.2,0.1-0.2,0.2
		c-0.1,0-0.1,0.1-0.2,0.1l0-0.2l-0.1-0.1c-0.1,0-0.2,0-0.3,0.1c-0.1,0.1-0.1,0.1-0.2,0.2c-0.1,0.1-0.1,0.1-0.2,0.2
		c-0.1,0.1-0.2,0.1-0.3,0.1c-0.1,0-0.2,0-0.3-0.1c-0.1,0-0.2-0.1-0.2-0.3c0-0.1,0-0.2,0.1-0.3c0-0.1,0.1-0.2,0.1-0.3
		c0-0.1,0-0.3,0-0.4c0-0.1,0-0.3,0-0.4c0-0.1,0-0.3,0-0.4c0-0.1,0-0.3,0-0.4c0-0.2,0-0.3-0.1-0.5s-0.1-0.3-0.2-0.5
		c-0.1-0.2-0.1-0.3-0.2-0.5c0-0.2-0.1-0.3-0.1-0.5c0-0.2,0-0.4,0.1-0.6c0.1-0.2,0.1-0.4,0.1-0.6c0-0.1,0-0.1,0-0.2
		c0,0,0-0.1-0.1-0.1c0,0,0-0.1-0.1-0.1s0-0.1,0-0.3c0-0.1,0-0.2,0-0.4c0-0.1,0-0.2,0-0.3c0-0.2,0-0.3,0-0.5s0-0.3,0-0.5
		c0-0.3,0-0.6,0.1-0.8c0.1-0.3,0.1-0.6,0.1-0.8c0-0.4,0-0.8-0.1-1.1c-0.1-0.4-0.1-0.8-0.1-1.1c0-0.1,0-0.3,0.1-0.4
		c0-0.1,0.1-0.3,0.1-0.4c0-0.1,0.1-0.3,0.1-0.4s0.1-0.3,0.1-0.4c0-0.3,0-0.6-0.1-0.9c0-0.3-0.1-0.6-0.1-0.8c0-0.3-0.1-0.6-0.1-0.9
		c0-0.3-0.1-0.6-0.1-0.9c0-0.2,0-0.3,0-0.5c0-0.2,0-0.3,0-0.5c0-0.5-0.1-0.9-0.3-1.2c-0.2-0.3-0.4-0.4-0.7-0.5
		c-0.3-0.1-0.5-0.2-0.8-0.2c-0.3,0-0.6-0.1-0.8-0.1c-0.3,0-0.5-0.1-0.7-0.3c-0.2-0.1-0.3-0.4-0.3-0.7c0-0.3,0.1-0.5,0.2-0.7
		c0.2-0.2,0.3-0.3,0.6-0.4c0.2-0.1,0.5-0.2,0.7-0.2c0.3,0,0.5,0,0.7,0c0.6,0,1.1,0.1,1.7,0.2c0.6,0.1,1.1,0.2,1.7,0.2
		c0.1,0,0.2,0.1,0.2,0.2c0,0.1,0,0.2,0,0.3c0,0.1,0,0.3-0.1,0.4c0,0.2,0,0.3,0,0.5c0,0.4,0,0.7,0,1.1c0,0.4,0,0.7,0,1
		c0,0.1,0,0.3,0,0.5s0,0.5,0,0.8c0,0.3,0,0.6,0.1,1c0,0.3,0.1,0.6,0.1,0.9c0.1,0.3,0.1,0.5,0.2,0.7c0.1,0.2,0.2,0.3,0.3,0.3
		c0.1,0,0.2,0,0.3-0.1c0.1-0.1,0.2-0.1,0.3-0.2c0.1-0.1,0.2-0.2,0.2-0.2c0.1-0.1,0.2-0.1,0.3-0.2c0.2-0.1,0.5-0.2,0.8-0.2
		c0.3,0,0.5-0.1,0.8-0.1c0.1,0,0.2,0,0.3-0.1s0.2-0.1,0.3-0.2c0.1-0.1,0.2-0.1,0.3-0.2c0.1-0.1,0.2-0.1,0.4-0.1c0.2,0,0.3,0,0.4,0.1
		s0.3,0.1,0.4,0.2s0.3,0.1,0.4,0.2c0.1,0.1,0.3,0.1,0.4,0.1c0.2,0,0.4,0,0.7,0.1c0.2,0,0.4,0.1,0.6,0.2c0.1,0.1,0.2,0.1,0.3,0.2
		c0.1,0.1,0.1,0.1,0.2,0.2c0.1,0.1,0.2,0.1,0.3,0.1c0.1,0,0.2,0,0.3,0c0.1,0,0.2,0,0.3,0.1c0.1,0,0.3,0.1,0.4,0.2
		c0.2,0.1,0.3,0.3,0.5,0.4s0.3,0.3,0.5,0.4s0.3,0.3,0.4,0.5s0.2,0.4,0.2,0.6c0.1,0.4,0.2,0.9,0.3,1.4c0.2,0.5,0.3,0.9,0.6,1.3
		c0.2,0.2,0.3,0.5,0.4,0.8C564.4,421.8,564.4,422.1,564.4,422.4z M562.8,423.1c0-0.1-0.1-0.2-0.2-0.3c-0.1-0.1-0.2-0.1-0.3-0.2
		s-0.2-0.1-0.3-0.2c-0.1-0.1-0.1-0.1,0-0.2c0-0.1,0.1-0.1,0.1-0.2c0,0,0.1,0,0.2,0c0-0.2-0.1-0.4-0.3-0.7c-0.2-0.3-0.3-0.5-0.4-0.7
		c-0.1-0.2-0.1-0.3-0.1-0.5c0-0.1-0.1-0.3-0.1-0.4c0-0.1-0.1-0.2-0.2-0.3c-0.1-0.1-0.2-0.2-0.4-0.3c-0.1-0.1-0.2-0.1-0.3-0.2
		c-0.1,0-0.2-0.1-0.2-0.1c-0.1,0-0.1-0.1-0.2-0.2s-0.1-0.2-0.2-0.3c-0.1-0.2-0.1-0.3-0.2-0.4c-0.1-0.1-0.2-0.1-0.3-0.2
		s-0.2-0.1-0.4-0.1c-0.1,0-0.3-0.1-0.4-0.1c-0.4-0.1-0.7-0.2-1-0.3c-0.3-0.1-0.7-0.1-1.1-0.1c-0.7,0-1.4,0.1-1.9,0.3
		c-0.5,0.2-0.9,0.5-1.2,0.9c-0.3,0.4-0.6,0.9-0.7,1.4c-0.2,0.6-0.3,1.2-0.3,1.8c0,0.3-0.1,0.5-0.1,0.8s-0.1,0.5-0.2,0.8
		c-0.1,0.3-0.1,0.5-0.2,0.8c-0.1,0.3-0.1,0.5-0.1,0.8c0,0.1,0,0.2,0,0.3s0.1,0.1,0.1,0.2c0.2,0.2,0.3,0.4,0.3,0.7
		c0,0.2,0,0.5,0.1,0.7c0,0.2,0.1,0.4,0.1,0.6c0.1,0.2,0.2,0.3,0.5,0.4c0.2,0.1,0.3,0.1,0.4,0.2c0.1,0.1,0.1,0.1,0.2,0.2
		c0.1,0.1,0.1,0.2,0.2,0.3c0,0.1,0.1,0.2,0.2,0.3c0.2-0.1,0.5-0.1,0.7-0.1c0.2,0,0.5-0.1,0.7-0.1c0,0.1,0.1,0.3,0.2,0.3
		c0.1,0.1,0.3,0.2,0.5,0.2c0.2,0,0.4,0.1,0.6,0.1c0.2,0,0.3,0,0.4,0c0.2,0,0.4,0,0.6,0c0.2,0,0.4-0.1,0.6-0.1
		c0.2-0.1,0.4-0.1,0.5-0.2c0.2-0.1,0.3-0.2,0.4-0.4c0.2-0.3,0.4-0.5,0.6-0.6c0.2-0.1,0.4-0.2,0.7-0.3c0.2-0.1,0.4-0.2,0.6-0.4
		c0.2-0.1,0.3-0.4,0.4-0.7c0.1-0.4,0.2-0.8,0.4-1.2c0.1-0.4,0.2-0.8,0.2-1.2c0-0.1,0-0.3,0-0.4c0-0.1-0.1-0.3-0.1-0.4
		c0.1,0.1,0.3,0.1,0.4,0.2c0.1,0.1,0.3,0.1,0.4,0.1c0.1,0,0.1,0,0.1-0.1C562.8,423.2,562.8,423.1,562.8,423.1z"/>
</g>
<g id="Rot" class="st5">
	<path d="M65.4,426.7c0,0.1,0,0.2,0,0.4c0,0.2-0.1,0.3-0.2,0.3c-0.1,0.1-0.2,0.1-0.2,0.3c0,0.1,0,0.3,0,0.4c0,0.1,0,0.2,0,0.3
		s-0.1,0.2-0.1,0.2c-0.1,0-0.1,0-0.1,0c0,0-0.1,0-0.1,0c-0.1,0-0.1,0-0.2,0.1c-0.1,0.1-0.1,0.1-0.1,0.2s0,0.1,0.1,0.1
		c0,0,0.1,0.1,0.1,0.1c0,0-0.1,0.1-0.2,0.2s-0.3,0.1-0.5,0.2c-0.2,0.1-0.4,0.1-0.6,0.1c-0.2,0-0.3,0.1-0.4,0.1
		c-0.4,0-0.8-0.1-1.2-0.2c-0.4-0.1-0.8-0.3-1.1-0.4c-0.4-0.2-0.8-0.4-1-0.7c-0.2-0.3-0.4-0.7-0.5-1.2c-0.1-0.4-0.2-0.9-0.2-1.3
		c0-0.5-0.1-0.9-0.3-1.2c-0.1-0.2-0.1-0.3-0.1-0.4c0-0.1,0-0.2,0-0.3s0.1-0.1,0.1-0.2c0,0,0.1-0.1,0.1-0.1c0,0,0-0.1,0-0.1
		c0-0.1,0-0.3-0.1-0.4c-0.1-0.1-0.1-0.3-0.1-0.5c0-0.1,0-0.2,0-0.3s0-0.2,0-0.3c0-0.4,0-0.7-0.1-1c-0.1-0.3-0.2-0.5-0.3-0.7
		s-0.3-0.4-0.4-0.6c-0.2-0.2-0.4-0.5-0.6-0.8c-0.1,0-0.2,0-0.3,0s-0.2,0-0.3,0c-0.2,0-0.4,0-0.6,0c-0.2,0-0.4,0-0.6,0
		c-0.2,0-0.5,0-0.7,0.1s-0.5,0.1-0.7,0.1c-0.2,0-0.3,0-0.5-0.1c-0.2,0-0.3-0.1-0.5-0.1c-0.2,0-0.4,0-0.5,0.1
		c-0.2,0.1-0.4,0.2-0.5,0.3s-0.3,0.3-0.4,0.4c-0.1,0.2-0.1,0.3-0.1,0.5v0.5c0,0.9-0.1,1.9-0.2,2.8c0,0.1,0,0.3-0.1,0.4
		c0,0.1,0,0.3,0,0.4c0,0.4,0.1,0.8,0.3,1.1c0.2,0.3,0.4,0.5,0.7,0.7c0.3,0.2,0.5,0.3,0.9,0.4c0.3,0.1,0.6,0.2,0.9,0.3
		s0.5,0.3,0.7,0.4c0.2,0.2,0.3,0.4,0.3,0.7c0,0.1,0,0.2-0.1,0.3c0,0.1-0.1,0.2-0.1,0.3c-0.1,0.2-0.3,0.4-0.4,0.5s-0.3,0.2-0.4,0.3
		c-0.1,0.1-0.3,0.1-0.5,0.1c-0.2,0-0.4,0.1-0.6,0.1c-0.2,0-0.4,0.1-0.6,0.1c-0.2,0-0.4,0-0.6,0c-0.3,0-0.6,0-0.9-0.1
		c-0.3-0.1-0.6-0.1-0.9-0.1c-0.2,0-0.5,0-0.7,0.1c-0.2,0-0.5,0.1-0.7,0.1c-0.2,0-0.5,0.1-0.7,0.1c-0.2,0-0.5,0.1-0.7,0.1
		c-0.2,0-0.3,0-0.5,0c-0.2,0-0.3-0.1-0.5-0.2c-0.2-0.1-0.3-0.2-0.4-0.3c-0.1-0.1-0.2-0.3-0.2-0.5c0-0.2,0-0.3,0.1-0.4
		c0.1-0.1,0.2-0.2,0.3-0.3c0.1-0.1,0.3-0.2,0.4-0.2c0.1-0.1,0.3-0.1,0.4-0.1c0.1,0,0.2,0,0.3,0s0.2,0,0.2,0c0.1,0,0.1-0.1,0.2-0.1
		c0.1,0,0.1-0.1,0.2-0.2c0.1-0.1,0.1-0.1,0.2-0.1c0,0,0.1,0,0.2,0c0.1,0,0.1,0,0.2,0c0.1,0,0.1,0,0.2,0c0.1,0,0.2,0,0.3-0.1
		c0.2-0.1,0.4-0.3,0.5-0.5c0.1-0.2,0.2-0.4,0.2-0.7c0-0.2,0.1-0.5,0.1-0.8s0-0.5,0.1-0.7c0.1-0.2,0.1-0.5,0.1-0.7
		c0-0.4,0-0.8-0.1-1.1c-0.1-0.4-0.1-0.7-0.1-1.1c0-0.5,0-0.9,0.1-1.4c0.1-0.5,0.1-0.9,0.1-1.4c0-0.1,0-0.2,0-0.3c0-0.1,0-0.2,0-0.3
		c0-0.8,0-1.5,0.1-2.3s0.1-1.5,0.1-2.3c0-0.2,0-0.4,0-0.6s0-0.4,0-0.6c0-0.2,0-0.4-0.1-0.6c0-0.3-0.1-0.5-0.1-0.8
		c0-0.3-0.1-0.5-0.2-0.8c-0.1-0.3-0.2-0.5-0.3-0.7s-0.3-0.4-0.5-0.5c-0.2-0.1-0.4-0.2-0.6-0.2c-0.1,0-0.1,0-0.2,0
		c-0.1,0-0.1,0-0.2,0c-0.1,0-0.2,0-0.3-0.1c-0.1-0.1-0.1-0.2-0.2-0.3s-0.1-0.2-0.1-0.3c0-0.1,0-0.2,0-0.3c0-0.4,0.1-0.6,0.3-0.8
		c0.2-0.2,0.4-0.3,0.7-0.4c0.3-0.1,0.6-0.1,0.9-0.1c0.3,0,0.6,0,0.8,0c0.3,0,0.6-0.1,0.8-0.1c0.3-0.1,0.6-0.1,0.8-0.1
		c0.4,0,0.8,0.1,1.2,0.2c0.4,0.1,0.8,0.2,1.2,0.2c0.3,0,0.7,0,1-0.1c0.3-0.1,0.6-0.1,1-0.3c0.2-0.1,0.3-0.1,0.4-0.1
		c0.4,0,0.8,0.1,1.2,0.2c0.4,0.1,0.8,0.2,1.2,0.2c0.3,0,0.6,0.1,0.9,0.2c0.3,0.1,0.6,0.2,0.8,0.3s0.5,0.3,0.7,0.6
		c0.2,0.2,0.3,0.5,0.4,0.8c0,0.2,0.1,0.4,0.2,0.5c0.1,0.2,0.2,0.3,0.4,0.5s0.3,0.3,0.4,0.4s0.2,0.2,0.2,0.3s0,0.1-0.1,0.2
		c-0.1,0-0.1,0.1-0.1,0.2c0,0.1,0,0.1,0.1,0.2s0.1,0.1,0.2,0.2c0.1,0.1,0.2,0.2,0.2,0.3c0.1,0.1,0.1,0.2,0.1,0.3
		c0,0.2-0.1,0.3-0.2,0.4c-0.1,0.1-0.2,0.3-0.2,0.4l0,0l0.2-0.1l0,0c0,0.2,0.1,0.4,0.1,0.5s0,0.4,0,0.5c0,0.2,0,0.4,0,0.7
		s0,0.5-0.1,0.7c0,0.2-0.1,0.5-0.2,0.7s-0.2,0.4-0.4,0.5c-0.1,0.1-0.2,0.1-0.3,0.2c-0.1,0-0.2,0.1-0.3,0.1c-0.1,0-0.2,0.1-0.3,0.2
		c-0.1,0.1-0.1,0.2-0.2,0.3c-0.1,0.2-0.1,0.4-0.3,0.5c-0.1,0.2-0.3,0.3-0.4,0.5c-0.1,0.2-0.3,0.3-0.4,0.5c-0.1,0.2-0.2,0.3-0.2,0.5
		c0,0.3,0.1,0.6,0.2,0.9c0.1,0.3,0.3,0.5,0.4,0.8c0.1,0.3,0.2,0.6,0.3,0.9c0.1,0.3,0.1,0.6,0.1,0.9c0,0.3,0,0.6,0.1,0.9
		s0,0.6,0.1,0.9c0,0.1,0.1,0.3,0.2,0.6c0.1,0.3,0.2,0.6,0.3,0.9c0.1,0.3,0.3,0.6,0.4,0.8c0.2,0.2,0.3,0.3,0.5,0.3
		c0.1,0,0.3-0.1,0.3-0.2c0.1-0.2,0.2-0.3,0.3-0.5c0.1-0.2,0.2-0.4,0.3-0.6c0.1-0.2,0.2-0.3,0.4-0.4c0.3,0,0.6,0.1,0.8,0.2
		c0.2,0.1,0.4,0.2,0.5,0.4s0.2,0.4,0.3,0.6C65.3,426.1,65.4,426.4,65.4,426.7z M60.5,411.8c0-0.2,0-0.3-0.1-0.5
		c-0.1-0.2-0.1-0.4-0.2-0.6c-0.1-0.2-0.2-0.4-0.3-0.6c-0.1-0.2-0.2-0.3-0.3-0.5c-0.2,0-0.4,0-0.5,0c-0.1,0-0.1-0.1-0.1-0.1
		c0,0,0-0.1-0.1-0.2c0-0.1-0.1-0.1-0.2-0.2c-0.4-0.2-0.7-0.3-1-0.4c-0.3-0.1-0.7-0.1-1.1-0.1c-0.1,0-0.2,0-0.3,0.1
		c-0.1,0.1-0.2,0.1-0.3,0.1c-0.2,0-0.5,0-0.7-0.1c-0.2-0.1-0.5-0.1-0.7-0.1c-0.4,0-0.7,0-1.1,0.1c-0.2,0.1-0.5,0.1-0.7,0.2
		c-0.2,0.1-0.5,0.1-0.7,0.2c-0.2,0.1-0.4,0.3-0.5,0.4s-0.2,0.4-0.2,0.8c0,0.3,0,0.7,0.1,1c0.1,0.3,0.1,0.7,0.1,1
		c0,0.2,0,0.3-0.1,0.5c0,0.2-0.1,0.3-0.2,0.4c-0.1,0.1-0.1,0.3-0.2,0.4c0,0.2-0.1,0.3-0.1,0.5c0,0.2,0,0.4,0.1,0.6
		c0,0.2,0.1,0.4,0.2,0.5c0.1,0.2,0.2,0.3,0.4,0.4c0.2,0.1,0.4,0.1,0.6,0.1c0.2,0,0.4,0,0.6-0.1c0.2-0.1,0.4-0.1,0.6-0.1
		c0.1,0,0.2,0,0.3,0.1c0.1,0.1,0.2,0.1,0.3,0.2c0.1,0.1,0.2,0.1,0.3,0.2s0.2,0.1,0.4,0.1c0.1,0,0.2,0,0.3,0c0.1,0,0.2-0.1,0.3-0.1
		c0.4-0.2,0.8-0.3,1.3-0.5s0.9-0.2,1.4-0.2c0.1,0,0.3-0.1,0.4-0.2c0.2-0.1,0.3-0.3,0.5-0.5c0.2-0.2,0.3-0.4,0.5-0.7
		c0.2-0.3,0.3-0.5,0.5-0.8c0.1-0.3,0.2-0.5,0.3-0.7C60.5,412.1,60.5,411.9,60.5,411.8z"/>
	<path d="M83.8,422.2c0,0.2,0,0.3-0.1,0.4c0,0.1-0.1,0.3-0.2,0.3c-0.1,0.1-0.1,0.2-0.2,0.2s-0.1,0.1-0.1,0.1c0,0.1,0,0.2,0.1,0.3
		c0.1,0.1,0.1,0.2,0.1,0.4c0,0.1,0,0.1-0.1,0.1c0,0-0.1,0-0.2,0c-0.1,0-0.2,0-0.2,0c0,0.2,0,0.4,0.1,0.6c0,0.2,0,0.4,0,0.6
		c0,0.3,0,0.5-0.1,0.6c-0.1,0.1-0.1,0.1-0.2,0.2c-0.1,0-0.1,0-0.2,0.1c-0.1,0-0.1,0.1-0.1,0.3c0,0.1-0.1,0.2-0.2,0.4
		c-0.1,0.2-0.3,0.3-0.5,0.5c-0.2,0.2-0.4,0.3-0.6,0.4c-0.2,0.1-0.4,0.2-0.5,0.2c0,0-0.1,0-0.1,0c0,0.1,0,0.2,0,0.3
		c0,0.1,0,0.2,0,0.3c0,0.1,0,0.2-0.1,0.3s-0.2,0.1-0.3,0.1c-0.2,0.1-0.3,0.2-0.5,0.3c-0.2,0.1-0.4,0.3-0.5,0.4
		c-0.2,0.2-0.4,0.3-0.6,0.4c-0.2,0.1-0.4,0.2-0.6,0.2c-0.2,0-0.3,0-0.5-0.1c-0.1-0.1-0.3-0.1-0.5-0.1c-0.2,0-0.3,0-0.4,0.1
		c-0.1,0-0.2,0.1-0.3,0.2c-0.1,0.1-0.2,0.1-0.3,0.2c-0.1,0-0.2,0.1-0.4,0.1c-0.3,0-0.6-0.1-0.8-0.2c-0.3-0.1-0.5-0.3-0.8-0.3
		c-0.2-0.1-0.3-0.1-0.5-0.1c-0.2,0-0.3-0.1-0.5-0.1s-0.3-0.1-0.5-0.2c-0.1-0.1-0.3-0.2-0.4-0.3c-0.2-0.3-0.5-0.5-0.8-0.7
		s-0.6-0.4-0.9-0.5c-0.3-0.2-0.6-0.3-0.9-0.5s-0.5-0.4-0.8-0.7c-0.2-0.2-0.3-0.5-0.5-0.7c-0.2-0.3-0.4-0.5-0.6-0.8
		c-0.2-0.3-0.3-0.6-0.4-0.9c-0.1-0.3-0.2-0.6-0.2-0.9c0-0.2,0-0.4,0.1-0.6c0-0.2,0.1-0.4,0.1-0.6c0-0.2,0.1-0.4,0.1-0.6
		s0.1-0.4,0.1-0.6v-0.2c0,0,0-0.1,0-0.1c0-0.1-0.1-0.1-0.1-0.2c0,0-0.1-0.1-0.1-0.1c0,0-0.1-0.1-0.1-0.1c0,0,0,0,0,0
		c0-0.1,0-0.2,0.1-0.4c0-0.2,0.1-0.4,0.2-0.6c0.1-0.2,0.1-0.4,0.2-0.6c0.1-0.2,0.1-0.3,0.2-0.3c0.1-0.1,0.1-0.1,0.2-0.2
		c0.1-0.1,0.1-0.1,0.1-0.2c0-0.1,0-0.2,0-0.3c0-0.1,0-0.2,0-0.3c0-0.1,0-0.2,0-0.2c0,0,0.1,0,0.1,0c0.1,0,0.1,0,0.2,0
		c0.1,0,0.1-0.1,0.2-0.2c0.1-0.2,0.2-0.4,0.3-0.5c0.1-0.2,0.2-0.3,0.3-0.5c0.1-0.1,0.2-0.3,0.4-0.4c0.1-0.1,0.3-0.2,0.5-0.3
		c0.2-0.1,0.3-0.2,0.5-0.4c0.2-0.1,0.3-0.3,0.5-0.4c0.2-0.1,0.3-0.3,0.5-0.4c0.2-0.1,0.4-0.1,0.6-0.1c0.3,0,0.6-0.1,0.8-0.2
		c0.3-0.1,0.6-0.2,0.8-0.2c0.4-0.1,0.9-0.1,1.3-0.2c0.4-0.1,0.9-0.1,1.3-0.1c0.2,0,0.6,0,0.9,0.1c0.4,0.1,0.7,0.2,1.1,0.3
		c0.4,0.1,0.7,0.3,1.1,0.4c0.3,0.2,0.6,0.3,0.8,0.5v0c0,0.2,0,0.3-0.1,0.5c-0.1,0.2-0.1,0.3-0.1,0.5c0,0,0,0,0,0.1c0,0,0,0,0,0
		c0.2,0,0.4,0,0.5-0.1c0.2,0,0.3-0.1,0.5-0.1c0,0.2,0.1,0.3,0.2,0.4c0.1,0.1,0.3,0.1,0.4,0.2c0.1,0.1,0.3,0.2,0.4,0.3
		s0.2,0.4,0.3,0.6c0.1,0.2,0.2,0.4,0.3,0.6c0.1,0.2,0.2,0.4,0.3,0.5c0.1,0.1,0.2,0.3,0.2,0.5c0.1,0.2,0.1,0.4,0.2,0.6
		s0.1,0.4,0.1,0.6s0,0.4,0,0.5c0,0.2,0,0.4-0.1,0.5s-0.2,0.3-0.3,0.4c-0.1,0.1-0.2,0.2-0.3,0.3s-0.1,0.2-0.1,0.3c0,0.1,0,0.1,0,0.2
		c0,0.1,0.1,0.1,0.1,0.2c0,0,0.1,0,0.1,0c0.1,0,0.1,0,0.1-0.1v0c0-0.1,0-0.2-0.1-0.2c-0.1-0.1-0.1-0.2-0.1-0.3c0,0,0-0.1,0-0.1
		c0,0,0-0.1,0.1-0.1c0.1,0,0.1,0,0.2,0.1c0.1,0.1,0.1,0.2,0.2,0.3c0.1,0.1,0.1,0.2,0.1,0.2c0,0.1,0,0.1,0,0.1l0,0c0,0.1,0,0.1,0,0.1
		C83.8,422.1,83.8,422.1,83.8,422.2z M82.2,422.3c0-0.2-0.1-0.3-0.2-0.3s-0.3-0.1-0.4-0.1s-0.3,0-0.5,0c-0.2,0-0.3-0.1-0.3-0.2v-0.2
		c0-0.2,0-0.5-0.1-0.8c-0.1-0.3-0.1-0.6-0.2-1s-0.2-0.7-0.3-1s-0.2-0.6-0.3-0.8c-0.1-0.2-0.2-0.5-0.3-0.8c-0.1,0-0.2,0-0.2,0
		c-0.2,0-0.3,0-0.5-0.1s-0.3-0.2-0.5-0.2c-0.2-0.1-0.4-0.2-0.6-0.2s-0.6-0.1-1-0.1c-0.4,0-0.9,0-1.3-0.1s-0.9-0.1-1.3-0.1
		c-0.6,0-1.2,0.1-1.7,0.4c-0.5,0.3-1,0.6-1.4,1.1s-0.7,1-0.9,1.5c-0.2,0.6-0.3,1.1-0.3,1.7c0,0.2,0,0.5,0,0.8c0,0.3,0,0.6,0.1,1
		c0,0.3,0.1,0.6,0.2,0.9c0.1,0.3,0.2,0.5,0.4,0.6v0.5c0,0,0.1,0.1,0.2,0.1s0.1,0,0.2,0c0.1,0,0.1,0,0.2,0c0.1,0,0.1,0.1,0.1,0.1
		c0.1,0.4,0.3,0.7,0.5,0.9c0.2,0.2,0.5,0.4,0.7,0.5s0.5,0.3,0.8,0.4s0.5,0.4,0.7,0.6c0.1,0,0.2,0,0.3,0c0.1,0,0.2,0,0.3,0
		c0.3,0,0.7,0,1,0.1s0.7,0.1,1,0.1c0.4,0,0.7-0.1,1-0.3c0.3-0.2,0.5-0.4,0.7-0.7c0.1-0.2,0.2-0.3,0.4-0.5c0.1-0.1,0.2-0.2,0.3-0.4
		s0.2-0.2,0.4-0.3c0.1-0.1,0.3-0.2,0.5-0.3c0.1,0,0.1-0.1,0.2-0.2s0.2-0.1,0.3-0.2s0.2-0.2,0.2-0.2c0.1-0.1,0.1-0.2,0.1-0.2
		c0-0.1,0-0.2,0-0.3c0-0.1,0-0.2,0-0.3c0-0.1,0-0.2,0-0.4s0.1-0.3,0.2-0.4c0.1-0.1,0.2-0.3,0.3-0.3c0.1-0.1,0.2-0.1,0.4-0.1
		c0.1,0,0.2,0,0.4,0.1c0.1,0.1,0.2,0.1,0.3,0.2C82.2,422.4,82.2,422.3,82.2,422.3z"/>
	<path d="M101.3,423.5c0,0.3,0,0.7-0.1,1c-0.1,0.3-0.2,0.6-0.3,0.9c-0.1,0.3-0.2,0.6-0.3,0.9c-0.1,0.3-0.2,0.6-0.2,0.9
		c-0.1,0.5-0.3,1-0.6,1.3c-0.3,0.4-0.6,0.6-1.1,0.8c-0.4,0.2-0.9,0.4-1.4,0.5s-1,0.2-1.5,0.2c-0.5,0.1-1,0.1-1.6,0.1s-1,0.1-1.4,0.1
		c-0.2-0.1-0.3-0.2-0.4-0.4c-0.1-0.1-0.2-0.3-0.3-0.4c-0.1-0.1-0.2-0.2-0.3-0.3s-0.3-0.1-0.5-0.1c-0.1,0-0.1-0.1-0.2-0.3
		c0-0.2-0.1-0.4-0.1-0.6c0-0.2-0.1-0.4-0.1-0.6c0-0.2-0.1-0.3-0.2-0.3c-0.2,0-0.4-0.1-0.6-0.2c-0.1-0.1-0.3-0.2-0.3-0.4
		c-0.1-0.2-0.1-0.4-0.2-0.6c0-0.2,0-0.4,0-0.6c0-0.2,0-0.3-0.1-0.4c-0.1-0.1-0.1-0.3-0.2-0.4c-0.1-0.1-0.1-0.3-0.2-0.4
		c-0.1-0.1-0.1-0.3-0.1-0.4c0-0.2,0-0.4,0-0.6c0-0.2,0-0.5,0-0.8s0-0.5,0-0.8c0-0.2,0-0.5,0-0.6c0-0.2,0-0.4,0.1-0.5
		c0-0.1,0.1-0.2,0.2-0.3s0.1-0.2,0.2-0.3c0-0.1,0.1-0.2,0.1-0.3c0-0.1,0-0.2-0.1-0.3c-0.1-0.1-0.1-0.2-0.1-0.3c0-0.1,0-0.2,0.1-0.3
		c0.1-0.1,0.1-0.2,0.2-0.3c0.1-0.5,0.2-0.9,0.2-1.4c0-0.1,0-0.2,0-0.3s0-0.2,0-0.3c-0.2-0.2-0.5-0.3-0.8-0.4
		c-0.3-0.1-0.6-0.1-0.9-0.1c-0.3,0-0.6-0.1-0.9-0.1c-0.3,0-0.5-0.2-0.7-0.3c-0.2-0.2-0.3-0.3-0.4-0.5s-0.3-0.3-0.5-0.4
		c-0.2-0.1-0.3-0.1-0.4-0.2s-0.2-0.2-0.2-0.4c0-0.3,0.1-0.5,0.2-0.6c0.2-0.1,0.3-0.2,0.6-0.3c0.2-0.1,0.4-0.2,0.7-0.2
		s0.4-0.1,0.6-0.3c0.2-0.1,0.4-0.2,0.6-0.2c0.1,0,0.2,0,0.3,0c0.1,0,0.2,0,0.3,0c0.3,0,0.5,0,0.7-0.1c0.2-0.1,0.3-0.2,0.4-0.4
		c0.1-0.2,0.2-0.3,0.2-0.5c0-0.2,0.1-0.4,0.1-0.7c0-0.3,0-0.7-0.1-1c0-0.3-0.1-0.7-0.1-1c0-0.4,0.1-0.8,0.2-1.1
		c0.1-0.3,0.3-0.6,0.6-0.9c0.1-0.1,0.1-0.1,0.2-0.2c0.1-0.1,0.2-0.2,0.2-0.3s0.2-0.1,0.3-0.2c0.1-0.1,0.2-0.1,0.3-0.1
		c0.1,0,0.1,0,0.2,0c0,0,0.1,0.1,0.2,0.1c0.2,0.2,0.4,0.4,0.5,0.5c0.1,0.1,0.1,0.2,0.1,0.4c0,0.1,0,0.2,0,0.3s0,0.2,0,0.4
		c0,0.3,0,0.7,0.1,1c0.1,0.3,0.1,0.6,0.1,0.9c0,0.2,0,0.4-0.1,0.6c-0.1,0.2-0.1,0.4-0.1,0.6c0,0.2,0,0.3,0.1,0.4
		c0.1,0.1,0.2,0.2,0.2,0.4c0.1,0.1,0.2,0.2,0.3,0.4c0.1,0.1,0.1,0.3,0.1,0.4c0.1,0.1,0.4,0.1,0.7,0.2c0.4,0.1,0.8,0.1,1.3,0.1
		c0.5,0,0.9,0.1,1.4,0.1c0.5,0,0.9,0,1.2,0c0.3,0,0.5,0,0.6,0.1s0.3,0.1,0.4,0.1c0.1,0,0.2,0.1,0.3,0.2s0.2,0.1,0.3,0.1
		c0.2,0,0.3,0.1,0.4,0.1s0.2,0.2,0.2,0.4c0,0.3-0.1,0.5-0.2,0.6c-0.1,0.2-0.3,0.3-0.5,0.3c-0.2,0.1-0.4,0.1-0.6,0.1
		c-0.2,0-0.4,0-0.6,0c-0.3,0-0.6,0-0.9,0c-0.3,0-0.6,0-0.9,0c-0.5,0-1,0-1.4,0.1s-0.8,0.3-1.1,0.5c-0.3,0.2-0.5,0.5-0.7,0.9
		s-0.3,0.8-0.3,1.4c0,0.5,0,1.1,0.1,1.6c0.1,0.5,0.1,1.1,0.1,1.6c0,0.5,0,0.9,0,1.2s0.1,0.6,0.2,0.8c0.1,0.3,0.3,0.7,0.3,1.1
		c0.1,0.4,0.2,0.8,0.3,1.1c0.1,0.4,0.3,0.7,0.6,0.9c0.2,0.2,0.6,0.4,1.1,0.4c0.2,0,0.4,0,0.6-0.1s0.5-0.1,0.8-0.2
		c0.3-0.1,0.5-0.2,0.7-0.4c0.2-0.1,0.3-0.3,0.3-0.5c0-0.2-0.1-0.4-0.2-0.6c-0.1-0.2-0.2-0.4-0.2-0.6c0-0.2,0-0.3,0.1-0.4
		c0.1-0.1,0.2-0.2,0.3-0.3c0.1-0.1,0.2-0.2,0.4-0.2s0.2-0.1,0.4-0.2c0.2-0.2,0.4-0.5,0.7-0.6s0.6-0.3,0.9-0.3c0.2,0,0.4,0,0.6,0.1
		c0.2,0.1,0.4,0.2,0.6,0.3C101.3,423.1,101.3,423.3,101.3,423.5z"/>
</g>
<g id="Grün" class="st5">
	<path d="M41.8,499.4c0,0.1,0,0.2,0,0.3s-0.1,0.2-0.1,0.4c0,0.1-0.1,0.2-0.2,0.3c-0.1,0.1-0.1,0.1-0.2,0.1c0,0-0.1,0-0.1,0
		c0,0-0.1,0-0.1,0c-0.1,0-0.1,0-0.2,0.1c-0.1,0.1-0.1,0.2-0.2,0.2s-0.2,0.2-0.2,0.2c-0.1,0.1-0.2,0.1-0.3,0.1c-0.1,0-0.1,0-0.2,0
		c0,0.2,0.1,0.4,0.1,0.6s0,0.4,0,0.6c0,0.3,0,0.7-0.1,1c0,0.3-0.1,0.7-0.1,1c-0.1,0.3-0.1,0.7-0.1,1s-0.1,0.7-0.1,1
		c0,0.4,0,0.8,0.1,1.2c0.1,0.4,0.1,0.8,0.1,1.2c0,0.2,0,0.4,0,0.5s-0.1,0.4-0.2,0.5c-0.1,0.2-0.2,0.3-0.3,0.4s-0.3,0.2-0.5,0.2
		c-0.3,0-0.5-0.1-0.7-0.3c-0.2-0.2-0.3-0.4-0.4-0.6c-0.1-0.2-0.2-0.4-0.3-0.6s-0.2-0.3-0.4-0.3c-0.1,0-0.2,0-0.3,0.1
		c-0.1,0.1-0.2,0.2-0.4,0.3c-0.1,0.1-0.3,0.2-0.5,0.3c-0.2,0.1-0.3,0.2-0.5,0.2c-0.2,0-0.3,0.1-0.4,0.2c-0.1,0.1-0.2,0.1-0.2,0.2
		c-0.1,0.1-0.2,0.1-0.3,0.2s-0.4,0.1-0.8,0.1c-0.2,0-0.5,0-0.7,0c-0.2,0-0.5,0-0.7,0c-0.2,0-0.3,0-0.5,0s-0.3,0-0.5,0
		c-0.3,0-0.5,0-0.7-0.1c-0.2,0-0.3-0.1-0.5-0.2s-0.3-0.2-0.4-0.2s-0.3-0.2-0.6-0.2c-0.2-0.1-0.3-0.1-0.4-0.1c-0.1,0-0.2-0.1-0.3-0.1
		c-0.1,0-0.2-0.1-0.3-0.2c-0.1-0.1-0.2-0.2-0.3-0.3c-0.1-0.1-0.2-0.1-0.3-0.2c-0.1-0.1-0.2-0.1-0.3-0.2c-0.1-0.1-0.2-0.1-0.3-0.2
		c-0.1-0.1-0.1-0.2-0.1-0.3c0-0.1,0-0.2,0-0.2c0,0-0.1-0.1-0.1-0.1c0,0-0.1,0-0.1-0.1c0,0-0.1,0-0.2-0.1c-0.1-0.2-0.2-0.4-0.3-0.6
		c-0.1-0.2-0.1-0.4-0.2-0.6c-0.1-0.2-0.1-0.4-0.2-0.6c-0.1-0.2-0.2-0.4-0.4-0.5c0-0.1,0-0.2,0-0.4c0-0.2,0-0.4-0.1-0.7
		s-0.2-0.4-0.3-0.6c-0.1-0.2-0.2-0.4-0.3-0.6c-0.1-0.2-0.1-0.5-0.1-0.7c0-0.2,0-0.3,0-0.5c0-0.2,0-0.3,0-0.5c0-0.2,0-0.4-0.1-0.6
		c0-0.2-0.1-0.4-0.2-0.6c-0.1-0.2-0.1-0.4-0.2-0.6c0-0.2-0.1-0.4-0.1-0.6c0-0.1,0-0.1,0-0.2s0-0.1,0-0.2c0.1-0.4,0.1-0.8,0.1-1.2
		c0-0.4,0.1-0.8,0.1-1.2s0.1-0.8,0.1-1.2c0-0.4,0.1-0.8,0.2-1.2c0.1-0.4,0.2-0.7,0.2-1.1c0.1-0.4,0.1-0.7,0.1-1.1
		c0.1-0.1,0.2-0.2,0.3-0.4c0.1-0.1,0.3-0.3,0.4-0.4s0.3-0.3,0.4-0.4s0.2-0.3,0.2-0.4c0-0.1,0.1-0.3,0.3-0.5c0.1-0.2,0.3-0.4,0.5-0.6
		c0.2-0.2,0.4-0.4,0.6-0.5c0.2-0.2,0.4-0.2,0.5-0.3c0.1,0,0.1,0,0.2,0c0.1,0,0.2,0,0.2,0c0.1,0,0.1-0.1,0.2-0.1
		c0.1,0,0.1-0.1,0.1-0.2c0-0.1,0-0.2,0-0.2c0.6-0.1,1.2-0.1,1.7-0.3c0.6-0.1,1.1-0.2,1.7-0.2c0.1,0,0.3,0,0.6,0c0.3,0,0.6,0,0.8,0.1
		c0.3,0.1,0.5,0.1,0.8,0.3s0.3,0.3,0.3,0.5v0.1c0,0,0.1,0,0.1,0c0,0,0.1,0,0.1,0c0.2,0,0.3,0,0.5,0.1s0.3,0.1,0.5,0.1s0.4,0,0.5,0
		c0.2,0,0.4,0,0.6-0.1s0.4-0.1,0.5-0.2c0.2-0.1,0.3-0.2,0.4-0.3c0.2,0,0.4,0.1,0.6,0.3c0.2,0.2,0.3,0.5,0.4,0.8
		c0.1,0.3,0.1,0.6,0.2,0.9c0,0.3,0.1,0.6,0.1,0.7c0,0.3,0,0.5-0.1,0.8c0,0.3-0.1,0.5-0.2,0.8c0,0.1,0.1,0.3,0.1,0.4
		c0.1,0.1,0.1,0.2,0.2,0.3c0.1,0.1,0.2,0.2,0.2,0.3c0.1,0.1,0.1,0.2,0.1,0.4c-0.1,0.2-0.1,0.5-0.1,0.8s0,0.7-0.1,1.1
		s-0.1,0.7-0.3,0.9c-0.1,0.3-0.4,0.4-0.7,0.4c-0.2,0-0.4-0.1-0.5-0.2c-0.2-0.1-0.3-0.3-0.3-0.5l0,0c0.1,0,0.2-0.1,0.2-0.2
		c0,0,0-0.1-0.1-0.1c-0.1-0.1-0.1-0.1-0.2-0.2s-0.2-0.1-0.3-0.2c-0.1-0.1-0.2-0.1-0.2-0.2c-0.1-0.1-0.2-0.2-0.2-0.4
		c-0.1-0.2-0.1-0.4-0.2-0.6c-0.1-0.2-0.1-0.4-0.1-0.6c0-0.2,0-0.4,0-0.6c0-0.1,0-0.1,0-0.1s0-0.1,0-0.1l0,0c0,0-0.1-0.1-0.2-0.2
		c-0.1-0.1-0.2-0.3-0.3-0.4s-0.2-0.3-0.4-0.5c-0.1-0.1-0.2-0.2-0.2-0.3c-0.2-0.2-0.4-0.4-0.7-0.6c-0.2-0.2-0.5-0.4-0.7-0.6
		c-0.1,0.1-0.2,0.1-0.3,0.1c-0.1,0-0.2,0.1-0.3,0.1c-0.1,0-0.2,0-0.2-0.1c-0.1,0-0.1-0.1-0.2-0.1c-0.1,0-0.1-0.1-0.2-0.1
		c-0.1,0-0.2-0.1-0.3-0.1c-0.2,0-0.5,0-0.7,0.1c-0.2,0.1-0.5,0.1-0.7,0.1c-0.2,0-0.5,0-0.7-0.1s-0.5-0.1-0.8-0.1c0,0-0.1,0-0.1,0
		s-0.1,0-0.1,0c0,0.1,0,0.2,0.1,0.3c0,0.1,0.1,0.2,0.1,0.3c0,0.2-0.1,0.3-0.2,0.4c-0.1,0.1-0.3,0.3-0.4,0.4
		c-0.2,0.1-0.3,0.3-0.5,0.4c-0.2,0.1-0.3,0.2-0.4,0.3c-0.1,0.2-0.2,0.3-0.3,0.5c-0.1,0.2-0.1,0.3-0.2,0.5c-0.1,0.2-0.1,0.3-0.3,0.5
		s-0.2,0.3-0.4,0.4c0.1,0.2,0.1,0.4,0.1,0.6c0,0.2,0,0.3,0,0.4s0,0.3,0,0.4c0,0.3,0,0.7,0.1,1c0.1,0.3,0.1,0.7,0.1,1
		c0,0.3,0,0.6-0.1,0.8c0,0.3-0.1,0.5-0.2,0.8c-0.1,0.3-0.1,0.5-0.2,0.8c0,0.3-0.1,0.6-0.1,0.8c0,0.2,0,0.5,0.1,0.7
		c0.1,0.2,0.1,0.4,0.2,0.7c0.1,0.2,0.1,0.4,0.2,0.6c0.1,0.2,0.1,0.4,0.1,0.5c0,0.1,0,0.2,0,0.4c0,0.1,0,0.2,0,0.4
		c0,0.5,0.1,0.9,0.3,1.2c0.2,0.3,0.4,0.6,0.7,0.9c0.3,0.3,0.5,0.6,0.8,0.8s0.4,0.6,0.5,1c0.2,0,0.3,0,0.5,0c0.2,0,0.4,0,0.6,0.1
		c0.2,0,0.4,0.1,0.6,0.2c0.2,0.1,0.4,0.1,0.6,0.2c0.2,0,0.4,0.1,0.6,0.1c0.4,0,0.8-0.1,1.3-0.3c0.4-0.2,0.8-0.4,1.2-0.7
		s0.7-0.6,0.9-1c0.3-0.4,0.5-0.7,0.5-1.1c0.1-0.4,0.2-0.8,0.4-1.1c0.1-0.1,0.1-0.2,0.2-0.2c0.1,0,0.1-0.1,0.2-0.1s0.1,0,0.1,0
		c0,0,0,0,0-0.1c0-0.1,0-0.1-0.1-0.2s-0.1-0.1-0.1-0.2c0,0,0-0.1,0.1-0.1c0,0,0.1-0.1,0.2-0.2c0.1-0.1,0.1-0.1,0.2-0.2
		c0-0.1,0.1-0.2,0.1-0.3c0-0.2-0.1-0.4-0.2-0.5s-0.3-0.3-0.5-0.4c-0.2-0.1-0.4-0.2-0.6-0.3c-0.2-0.1-0.4-0.2-0.6-0.3
		c-0.2-0.1-0.4-0.3-0.5-0.4s-0.2-0.4-0.2-0.7c0-0.2,0.1-0.4,0.2-0.6s0.3-0.3,0.5-0.4c0.2-0.1,0.4-0.2,0.6-0.2c0.2,0,0.4-0.1,0.6-0.1
		c0.1,0,0.3-0.1,0.4-0.1c0.2-0.1,0.3-0.1,0.5-0.2c0.2-0.1,0.3-0.1,0.4-0.2c0.1,0,0.3-0.1,0.4-0.1c0.2,0,0.3,0,0.5,0.1
		c0.2,0.1,0.3,0.1,0.5,0.1c0.2,0,0.5,0.1,0.8,0.1c0.3,0.1,0.6,0.1,0.9,0.2c0.3,0.1,0.5,0.3,0.7,0.4
		C41.7,498.9,41.8,499.1,41.8,499.4z"/>
	<path d="M61.5,498.5c0,0.2,0,0.4-0.1,0.5c-0.1,0.2-0.2,0.3-0.3,0.4c-0.1,0.1-0.2,0.3-0.3,0.4c-0.1,0.1-0.2,0.3-0.2,0.5
		c-0.1,0-0.2-0.1-0.3-0.1s-0.2,0-0.3,0c-0.3,0-0.5,0-0.8,0.1c-0.3,0-0.5,0.1-0.8,0.1c-0.3,0-0.5-0.1-0.7-0.3s-0.3-0.4-0.5-0.7
		s-0.2-0.5-0.2-0.8c0-0.3-0.1-0.6-0.1-0.8c0-0.3,0-0.6,0.1-0.9c-0.1,0-0.2,0-0.2,0c-0.1,0-0.2,0-0.3,0.1c-0.1,0.1-0.1,0.1-0.3,0.1
		c-0.1,0-0.2,0-0.3-0.1C56,497,56,497,55.8,497c-0.2,0-0.4,0.1-0.6,0.2s-0.5,0.2-0.7,0.4c-0.2,0.2-0.4,0.3-0.6,0.5
		c-0.2,0.2-0.3,0.4-0.3,0.5c-0.2,0-0.4,0.1-0.6,0.2c-0.2,0.1-0.4,0.2-0.6,0.3c-0.1,0.1-0.3,0.2-0.4,0.4s-0.2,0.4-0.3,0.6
		c-0.1,0.2-0.2,0.4-0.2,0.6c-0.1,0.2-0.2,0.4-0.3,0.5c-0.2,0.2-0.3,0.5-0.5,0.7c-0.1,0.2-0.2,0.5-0.2,0.8c0,0.4,0.1,0.8,0.2,1.1
		c0.1,0.4,0.2,0.8,0.2,1.2c0,0.3,0,0.5-0.1,0.8s-0.1,0.5-0.1,0.8c0,0.3,0.1,0.5,0.2,0.7c0.1,0.2,0.3,0.3,0.4,0.4
		c0.2,0.1,0.4,0.2,0.6,0.2c0.2,0,0.5,0,0.7,0c0.3,0,0.5,0,0.8,0c0.3,0,0.5,0,0.7,0c0.1,0.1,0.1,0.2,0.1,0.2s0,0.2,0,0.2
		c0,0.1,0,0.2-0.1,0.2c0,0.1,0,0.2,0,0.3c0,0,0,0.1,0,0.2c0.2,0,0.3,0,0.4-0.1s0.2-0.2,0.3-0.4c0.1,0,0.1,0.1,0.2,0.1
		c0.1,0,0.1,0.1,0.1,0.2c0,0.1,0,0.1,0,0.2c0,0.1-0.1,0.1-0.1,0.2c0,0.1-0.1,0.1-0.1,0.2c0,0.1,0,0.1,0,0.2c0,0,0,0.1,0,0.1
		c0,0,0,0.1,0,0.1c-0.1,0.1-0.1,0.1-0.2,0.2c-0.1,0-0.2,0-0.3,0c-0.2,0-0.3,0-0.4-0.1c-0.1-0.1-0.2-0.1-0.3-0.2
		c-0.1-0.1-0.2-0.1-0.3-0.2c-0.1-0.1-0.2-0.1-0.3-0.1c0,0-0.1,0-0.2,0c-0.1,0-0.2,0-0.3,0.1c-0.1,0-0.2,0.1-0.2,0.1
		c-0.1,0-0.1,0.1-0.1,0.1c0,0.1,0,0.2,0.1,0.2s0.1,0.1,0.1,0.2c0,0.1,0,0.1-0.1,0.2c-0.1,0-0.1,0.1-0.2,0.1c-0.1,0-0.2,0-0.2,0
		s-0.1,0-0.2,0c-0.4,0-0.8,0-1.3-0.1c-0.4-0.1-0.8-0.1-1.3-0.1c-0.2,0-0.4,0-0.6,0.1c-0.2,0.1-0.4,0.1-0.6,0.1c-0.1,0-0.2,0-0.3-0.1
		c-0.1,0-0.1-0.1-0.2-0.2c0-0.1-0.1-0.1-0.1-0.2c-0.1,0-0.1-0.1-0.2-0.1c-0.2,0-0.4,0-0.6,0.1c-0.2,0-0.4,0.1-0.6,0.1
		c-0.2,0-0.4,0.1-0.6,0.1c-0.2,0-0.4,0.1-0.6,0.1c-0.1,0-0.2,0-0.4,0c-0.2,0-0.3-0.1-0.4-0.1c-0.1-0.1-0.3-0.1-0.4-0.2
		c-0.1-0.1-0.1-0.2-0.1-0.4c0-0.1,0.1-0.2,0.2-0.3c0.1-0.1,0.2-0.3,0.3-0.4s0.3-0.2,0.4-0.3c0.1-0.1,0.2-0.1,0.3-0.1
		c0.2,0,0.3,0,0.5,0s0.3,0,0.5,0c0.3,0,0.6,0,0.9-0.1c0.3-0.1,0.6-0.2,0.8-0.4c0.2-0.2,0.4-0.4,0.6-0.6c0.2-0.3,0.2-0.5,0.2-0.9
		c0-0.1,0-0.3,0-0.4c0-0.1,0-0.3,0-0.4c0-0.3,0-0.6,0.1-0.8c0.1-0.3,0.1-0.6,0.1-0.8c0-0.4,0-0.8-0.1-1.2s-0.1-0.8-0.1-1.2
		c0-0.4,0-0.7,0-1.1s0-0.7,0-1.1c0-0.2,0-0.4,0-0.7c0-0.3,0-0.6-0.1-0.9c-0.1-0.3-0.2-0.6-0.3-0.8s-0.3-0.4-0.5-0.4
		c-0.2,0-0.5,0-0.7,0.1c-0.2,0.1-0.5,0.1-0.7,0.1c-0.2,0-0.4,0-0.6,0c-0.2,0-0.5-0.1-0.7-0.2s-0.4-0.2-0.6-0.3
		c-0.2-0.2-0.2-0.4-0.2-0.6c0-0.3,0-0.5,0.1-0.7c0.1-0.2,0.2-0.3,0.3-0.4c0.1-0.1,0.3-0.1,0.4-0.2c0.2,0,0.3,0,0.5,0
		c0.2,0,0.4,0,0.5,0c0.2,0,0.4,0,0.5,0c0.3,0,0.7,0,1-0.1c0.3,0,0.7-0.1,1-0.1c0.2,0,0.5,0,0.7,0c0.2,0,0.5,0.1,0.7,0.1
		c0.2,0.1,0.4,0.2,0.5,0.4c0.1,0.2,0.2,0.4,0.3,0.5c0.1,0.2,0.2,0.3,0.3,0.5c0.1,0.1,0.3,0.2,0.5,0.2c0.1,0,0.2,0,0.3-0.1
		c0.1-0.1,0.2-0.1,0.3-0.2s0.2-0.1,0.3-0.2c0.1-0.1,0.2-0.1,0.3-0.1c0.2,0,0.5-0.1,0.7-0.2c0.2-0.1,0.4-0.2,0.6-0.4
		c0.2-0.1,0.4-0.2,0.6-0.3c0.2-0.1,0.4-0.1,0.7-0.1c0.1,0,0.3,0,0.5,0c0.2,0,0.4-0.1,0.6-0.1c0.2-0.1,0.4-0.1,0.6-0.2
		c0.2-0.1,0.3-0.2,0.4-0.3c0.3,0,0.6,0.1,1,0.2c0.4,0.1,0.8,0.3,1.1,0.5s0.7,0.4,0.9,0.7c0.3,0.3,0.4,0.6,0.5,0.9
		c0,0.2,0.1,0.4,0.2,0.6c0.1,0.2,0.2,0.4,0.3,0.5c0.1,0.2,0.2,0.4,0.3,0.5C61.5,498.1,61.5,498.3,61.5,498.5z"/>
	<path d="M82.7,509.3c0,0.2-0.1,0.4-0.2,0.6s-0.3,0.4-0.5,0.6c-0.2,0.2-0.4,0.3-0.6,0.4c-0.2,0.1-0.4,0.2-0.6,0.2
		c-0.3,0-0.7,0-1-0.1c-0.3-0.1-0.7-0.1-1-0.1c-0.2,0-0.3,0-0.6,0c-0.2,0-0.4-0.1-0.4-0.2c-0.2,0-0.4-0.1-0.5-0.3s-0.2-0.3-0.3-0.5
		c-0.1-0.2-0.2-0.3-0.3-0.5c-0.1-0.2-0.3-0.3-0.5-0.3c-0.6,0.3-1.2,0.5-1.6,0.8c-0.5,0.2-0.9,0.5-1.4,0.7c-0.5,0.2-0.9,0.3-1.5,0.5
		s-1.1,0.2-1.9,0.2c-0.3,0-0.5,0-0.7,0s-0.2-0.1-0.3-0.2c-0.1-0.1-0.1-0.2-0.2-0.3c-0.1-0.1-0.2-0.3-0.3-0.4
		c-0.1-0.1-0.2-0.1-0.3-0.2c-0.1,0-0.2,0-0.2,0h-0.1c-0.1,0-0.2,0-0.3-0.1c-0.1,0-0.1-0.1-0.2-0.3c0-0.1-0.1-0.3-0.2-0.4
		s-0.2-0.3-0.3-0.5c-0.1-0.2-0.3-0.3-0.4-0.5c-0.1-0.1-0.2-0.2-0.4-0.3l0-1.6c0-1.1,0-2.1,0.1-3.2c0.1-1.1,0.1-2.1,0.1-3.2
		c0-0.2,0-0.4,0-0.7c0-0.3,0-0.6-0.1-0.9c0-0.3-0.1-0.6-0.2-0.8s-0.2-0.4-0.4-0.4c-0.2-0.1-0.5-0.1-0.8-0.1c-0.3,0-0.5,0-0.8,0
		s-0.5,0-0.7-0.1c-0.2-0.1-0.5-0.2-0.7-0.4c-0.1-0.1-0.2-0.3-0.3-0.4s-0.2-0.4-0.2-0.5c0-0.3,0.1-0.5,0.3-0.7
		c0.2-0.2,0.5-0.3,0.8-0.5c0.3-0.1,0.7-0.2,1-0.3c0.3-0.1,0.6-0.1,0.8-0.1c0.6,0,1.2,0.1,1.7,0.3c0.5,0.2,1,0.5,1.5,0.9
		c0,0,0,0,0,0.1c0,0,0,0,0,0c0,0.3,0.1,0.6,0.1,0.9c0.1,0.3,0.1,0.6,0.1,0.9c0,0.2,0,0.3-0.1,0.5c0,0.2-0.1,0.3-0.1,0.5
		c0,0.2,0,0.4,0.1,0.6c0,0.2,0.1,0.4,0.1,0.5c0,0.1,0,0.2,0,0.4c0,0.1,0,0.2,0,0.4c0,0.3,0,0.7,0.1,1c0.1,0.3,0.1,0.6,0.1,1
		c0,0.3,0,0.6-0.1,0.8c-0.1,0.3-0.1,0.6-0.2,0.8c-0.1,0.3-0.2,0.6-0.2,0.8c-0.1,0.3-0.1,0.6-0.1,0.8c0,0.4,0.1,0.8,0.2,1.1
		c0.2,0.3,0.4,0.6,0.6,0.9s0.6,0.5,0.9,0.6s0.7,0.2,1.1,0.2c0.3,0,0.6,0,0.8-0.1c0.2-0.1,0.4-0.1,0.5-0.2c0.1-0.1,0.2-0.2,0.3-0.2
		c0.1-0.1,0.2-0.1,0.3-0.1s0.2,0,0.2,0c0.1,0,0.1,0,0.2,0c0.2,0,0.3,0,0.4-0.1c0.1-0.1,0.2-0.1,0.3-0.2c0.1-0.1,0.2-0.2,0.2-0.3
		c0.1-0.1,0.2-0.1,0.3-0.2c0.2-0.1,0.5-0.1,0.6-0.2c0.2-0.1,0.3-0.3,0.3-0.6c0-0.1,0-0.1,0-0.1s0.1-0.1,0.2-0.1c0.1,0,0.1,0,0.1,0
		c0,0,0.1,0.1,0.1,0.1c0.1,0,0.1-0.1,0.1-0.2c0-0.1,0-0.1,0.1-0.2c0.1-0.2,0.2-0.4,0.3-0.5c0.1-0.2,0.2-0.3,0.3-0.5
		c0-0.2,0.1-0.4,0.2-0.6c0.1-0.2,0.1-0.4,0.1-0.6c0-0.2,0-0.3-0.1-0.5c-0.1-0.1-0.1-0.3-0.1-0.5c0-0.2,0-0.4,0.1-0.6
		c0.1-0.2,0.1-0.4,0.1-0.6c-0.1-0.1-0.1-0.2-0.2-0.3s-0.1-0.2-0.1-0.3c0-0.2,0-0.3,0.1-0.4c0.1-0.1,0.1-0.1,0.1-0.2
		c0-0.1,0-0.2-0.1-0.3c0-0.1-0.1-0.2-0.2-0.3c-0.1-0.1-0.1-0.2-0.2-0.3c0-0.1-0.1-0.2-0.1-0.3c0-0.1,0-0.2,0.1-0.3
		c0-0.1,0.1-0.2,0.1-0.3c0-0.2,0-0.3-0.1-0.5c-0.1-0.1-0.2-0.2-0.3-0.3c-0.1-0.1-0.3-0.2-0.4-0.2s-0.3-0.1-0.5-0.1
		c-0.3,0-0.5,0-0.7,0c-0.2,0-0.4,0-0.5-0.1c-0.1,0-0.3-0.1-0.4-0.3c-0.1-0.1-0.3-0.3-0.4-0.6c-0.1-0.2-0.1-0.3-0.1-0.4
		c0-0.3,0.1-0.5,0.3-0.6s0.5-0.3,0.8-0.4c0.3-0.1,0.6-0.1,0.9-0.2c0.3,0,0.6,0,0.8,0c0.2,0,0.3,0,0.5,0c0.2,0,0.3,0,0.5,0
		c0.2,0,0.4,0,0.5-0.1s0.4-0.1,0.5-0.1c0.3,0,0.5,0.1,0.6,0.2c0.2,0.1,0.3,0.3,0.4,0.6c0.1,0.2,0.2,0.5,0.2,0.8s0,0.6,0,0.9
		c0,0.4,0,0.8,0,1.1c0,0.4,0,0.6,0,0.9c0,0.5,0,0.9,0.1,1.3c0.1,0.4,0.1,0.8,0.1,1.1c0,0.1,0,0.2-0.1,0.3c0,0.1-0.1,0.2-0.2,0.3
		c-0.1,0.1-0.1,0.2-0.2,0.3c0,0.1-0.1,0.2-0.1,0.3c0,0.1,0,0.2,0,0.2l0.1,0.9c-0.1,0-0.1,0.1-0.1,0.2s0,0.1,0,0.2
		c0,0.2,0,0.3,0.1,0.5c0,0.2,0.1,0.3,0.1,0.5c0,0.2,0,0.4-0.1,0.6c0,0.2-0.1,0.4-0.1,0.6c0,0.5,0.2,0.9,0.5,1.1
		c0.3,0.3,0.7,0.4,1.2,0.4c0.3,0,0.5,0,0.8-0.1c0.1,0.2,0.2,0.3,0.3,0.4s0.3,0.2,0.4,0.4c0.1,0.1,0.2,0.3,0.3,0.4
		C82.6,508.9,82.7,509.1,82.7,509.3z M71.1,491.8c0,0.1,0,0.2,0,0.2s-0.1,0.1-0.1,0.2c0,0-0.1,0.1-0.1,0.2s-0.1,0.1-0.1,0.3
		c-0.2,0.3-0.5,0.5-0.7,0.7c-0.2,0.1-0.6,0.2-1,0.2c-0.2,0-0.3,0-0.5,0s-0.2,0-0.3,0c-0.1,0-0.1-0.1-0.2-0.2
		c-0.1-0.1-0.2-0.2-0.3-0.3c-0.1,0-0.1-0.1-0.2-0.1c-0.1,0-0.1-0.1-0.2-0.1c-0.1-0.1-0.1-0.2-0.1-0.3c0-0.1,0-0.2-0.1-0.3
		c-0.1-0.1-0.1-0.2-0.2-0.2c-0.1,0-0.1-0.1-0.1-0.1c0,0-0.1-0.1-0.1-0.2c0-0.1,0-0.2,0-0.4c0-0.2,0-0.4,0-0.5c0-0.1,0.1-0.3,0.3-0.4
		c0.1-0.1,0.1-0.2,0.2-0.3s0.1-0.2,0.2-0.3c0.1-0.1,0.2-0.2,0.3-0.2s0.3-0.1,0.4-0.2c0.1,0,0.3-0.1,0.4-0.1s0.3,0,0.4,0
		c0.3,0,0.6,0.1,0.9,0.2c0.3,0.2,0.5,0.3,0.7,0.6c0.2,0.2,0.3,0.5,0.4,0.8C71.1,491.2,71.1,491.5,71.1,491.8z M77.1,490.9
		c0,0.4,0,0.8,0,1.1c0,0.3-0.1,0.6-0.2,0.8s-0.3,0.4-0.5,0.5c-0.2,0.1-0.6,0.2-1,0.3c-0.1,0-0.2,0-0.2,0.1c-0.1,0-0.1,0-0.2,0
		c-0.2,0-0.4-0.1-0.7-0.2s-0.5-0.3-0.7-0.5s-0.4-0.4-0.5-0.7s-0.2-0.5-0.2-0.6c0-0.2,0-0.4,0-0.6c0-0.2,0-0.5,0.1-0.7
		s0.1-0.4,0.2-0.6s0.2-0.4,0.4-0.5c0.2-0.1,0.3-0.2,0.5-0.2c0.2,0,0.4-0.1,0.5-0.2c0.1,0,0.1,0,0.2,0c0.3,0,0.6,0,0.9,0.1
		c0.3,0.1,0.6,0.2,0.8,0.4s0.4,0.4,0.5,0.6S77.1,490.5,77.1,490.9z"/>
	<path d="M103.4,509.9c0,0.2,0,0.3-0.1,0.4c-0.1,0.1-0.2,0.2-0.3,0.2s-0.2,0.1-0.4,0.1c-0.1,0-0.3,0-0.4,0c-0.2,0-0.3,0-0.5,0
		c-0.2,0-0.3,0-0.5-0.1c-0.2,0.1-0.5,0.2-0.8,0.2c-0.3,0.1-0.6,0.1-0.8,0.1c-0.1,0-0.1,0-0.2,0c-0.1,0-0.1,0-0.2,0
		c-0.2,0-0.4,0-0.6,0.1c-0.2,0.1-0.4,0.1-0.6,0.1c-0.3,0-0.6,0-0.9-0.1c-0.3-0.1-0.6-0.1-0.9-0.2c-0.5,0-0.9-0.2-1.2-0.6
		c-0.3-0.4-0.4-0.8-0.4-1.3c0.3-0.2,0.7-0.3,1.1-0.4c0.4-0.1,0.7-0.1,1.1-0.1c0.2,0,0.4,0,0.6,0c0.2,0,0.4,0,0.6,0
		c0-0.8-0.1-1.6-0.2-2.4c-0.1-0.8-0.2-1.6-0.2-2.4c0-0.3,0-0.6,0-0.8s0.1-0.6,0.1-0.8c0.1-0.3,0.1-0.6,0.2-0.8
		c0.1-0.3,0.1-0.6,0.1-0.8c0-0.2,0-0.4-0.1-0.5c-0.1-0.2-0.1-0.3-0.2-0.5c-0.1-0.1-0.1-0.3-0.1-0.4c0-0.2,0-0.3-0.1-0.5
		s-0.1-0.3-0.1-0.5c-0.1-0.2-0.2-0.3-0.3-0.4c-0.1-0.1-0.3-0.2-0.6-0.3s-0.6-0.1-1-0.1c-0.1,0-0.3,0-0.6,0.1c-0.3,0-0.5,0.1-0.8,0.1
		c-0.3,0.1-0.5,0.1-0.7,0.2c-0.2,0.1-0.4,0.2-0.5,0.3c-0.1,0.1-0.1,0.1-0.2,0.2c-0.1,0.1-0.2,0.2-0.3,0.3c-0.1,0.1-0.2,0.2-0.3,0.3
		c-0.1,0.1-0.2,0.1-0.2,0.1c-0.2,0-0.3,0.1-0.4,0.1c-0.1,0-0.1,0.1-0.2,0.1c0,0-0.1,0.1-0.1,0.2s-0.1,0.2-0.2,0.3
		c0,0-0.1,0.1-0.1,0.3c-0.1,0.1-0.1,0.2-0.2,0.2c-0.1,0-0.1,0-0.1-0.1c0,0-0.1-0.1-0.1-0.1c0,0-0.1,0-0.1,0c0,0-0.1,0.1-0.1,0.1v0.5
		c-0.1,0.1-0.1,0.1-0.2,0.1c-0.1,0-0.1,0-0.1,0c0,0-0.1,0-0.1,0.1s0,0.1,0,0.3c0,0.1,0,0.2-0.1,0.3c-0.1,0.1-0.1,0.2-0.2,0.3
		c-0.1,0.1-0.1,0.2-0.2,0.3c-0.1,0.1-0.1,0.2-0.1,0.3c0,0.2,0,0.4,0.1,0.6c0.1,0.2,0.1,0.4,0.1,0.6c0,0.1,0,0.3-0.1,0.4
		c0,0.1-0.1,0.2-0.2,0.3c-0.1,0.1-0.1,0.2-0.2,0.2c0,0.1-0.1,0.2-0.1,0.3c0,0.2,0,0.3,0.1,0.4c0.1,0.1,0.1,0.3,0.2,0.4
		c0.1,0.1,0.1,0.3,0.2,0.4c0.1,0.1,0.1,0.3,0.1,0.5c0,0.2,0,0.4-0.1,0.6c0,0.2-0.1,0.4-0.1,0.6c0,0.2,0,0.4,0.1,0.5
		c0.1,0.1,0.2,0.2,0.3,0.3c0.1,0.1,0.2,0.1,0.4,0.1c0.2,0,0.3,0.1,0.5,0.1c0.2,0.1,0.3,0.1,0.5,0.2s0.3,0.3,0.5,0.5l0.1,0
		c0.2,0,0.3,0.1,0.4,0.2c0.1,0.2,0.1,0.3,0.1,0.5c0,0.2,0,0.3-0.1,0.4c-0.1,0.1-0.1,0.3-0.1,0.4c0,0.1-0.1,0.2-0.4,0.3
		c-0.3,0.1-0.6,0.2-1,0.2c-0.4,0-0.7,0.1-1,0.1c-0.3,0-0.5,0-0.7,0c-0.1,0-0.3,0-0.6,0s-0.6,0-0.9,0s-0.7,0-1-0.1
		c-0.4,0-0.7-0.1-1-0.1c-0.3-0.1-0.6-0.1-0.8-0.2c-0.2-0.1-0.3-0.2-0.4-0.3c-0.1-0.1-0.1-0.3-0.2-0.4c-0.1-0.2-0.1-0.3-0.1-0.5
		c0-0.2,0-0.3,0.1-0.4c0.1-0.1,0.2-0.2,0.3-0.4c0.2-0.2,0.3-0.2,0.5-0.3c0.2,0,0.4,0,0.6,0c0.2,0,0.4,0,0.6,0c0.2,0,0.3-0.1,0.5-0.3
		c0.1-0.1,0.2-0.4,0.3-0.7c0.1-0.3,0.1-0.7,0.1-1.3c0-0.1,0-0.3,0-0.4c0-0.1,0-0.3-0.1-0.4c0-0.1-0.1-0.3-0.1-0.4c0-0.1,0-0.2,0-0.2
		c0-0.1,0-0.1,0.1-0.2c0-0.1,0.1-0.2,0.1-0.2c0-0.1,0.1-0.2,0.1-0.3c0-0.1,0.1-0.2,0.1-0.3c0-0.2,0-0.4-0.1-0.5
		c-0.1-0.2-0.1-0.3-0.1-0.5c0-0.2,0-0.3,0.1-0.4c0.1-0.1,0.1-0.3,0.1-0.4c0-0.1,0-0.2-0.1-0.3c-0.1-0.1-0.1-0.2-0.1-0.4
		c0-0.1,0-0.2,0.1-0.4c0-0.1,0.1-0.3,0.1-0.4c0-0.3,0-0.6-0.1-0.9c-0.1-0.3-0.1-0.6-0.2-0.9c-0.1-0.3-0.2-0.6-0.4-0.8
		s-0.4-0.3-0.6-0.4c-0.2-0.1-0.5-0.2-0.7-0.2c-0.2-0.1-0.5-0.1-0.7-0.2c-0.2-0.1-0.4-0.3-0.5-0.5c-0.1-0.2-0.2-0.5-0.2-0.9
		c0-0.3,0.1-0.5,0.3-0.6c0.2-0.2,0.4-0.3,0.6-0.3c0.2-0.1,0.5-0.1,0.8-0.1s0.5,0,0.7,0c0.3,0,0.6,0,0.9,0.1c0.3,0.1,0.6,0.1,0.9,0.2
		c0.1,0,0.3,0.1,0.4,0.1s0.2,0.2,0.4,0.3c0.1,0.1,0.2,0.2,0.3,0.4c0.1,0.1,0.1,0.3,0.1,0.4c0,0.1,0,0.2,0.1,0.3s0.1,0.3,0.2,0.5
		c0.1,0.2,0.1,0.3,0.2,0.5c0.1,0.1,0.1,0.2,0.2,0.2c0.1-0.1,0.1-0.1,0.1-0.2c0-0.1,0.1-0.1,0.1-0.2c0-0.1,0.1-0.2,0.2-0.3
		c0.1-0.1,0.3-0.2,0.5-0.3c0.2-0.1,0.3-0.2,0.5-0.3c0.2-0.1,0.3-0.2,0.3-0.3c0.1-0.1,0.1-0.2,0.2-0.2c0-0.1,0.1-0.2,0.1-0.2
		c0-0.1,0.1-0.1,0.1-0.2c0.1,0,0.2-0.1,0.3-0.1h0.1c0.1,0,0.2-0.1,0.3-0.2c0.1-0.1,0.2-0.2,0.4-0.3c0.2-0.1,0.4-0.2,0.7-0.3
		s0.7-0.2,1.1-0.2c0.4,0,0.8,0,1.2,0c0.4,0,0.8,0.1,1.1,0.2c0.4,0.1,0.7,0.2,1,0.5c0.3,0.2,0.6,0.5,0.8,0.9c0.2,0.3,0.3,0.5,0.5,0.6
		c0.1,0.1,0.2,0.3,0.3,0.4c0.1,0.1,0.1,0.3,0.2,0.5s0,0.5,0,0.8c0,0.2,0,0.3,0.1,0.4c0.1,0.1,0.1,0.3,0.2,0.4
		c0.1,0.1,0.1,0.3,0.2,0.4c0.1,0.2,0.1,0.3,0.1,0.5c0,0.4,0,0.8-0.1,1.1c0,0.4-0.1,0.7-0.1,1.1c0,0.3-0.1,0.5-0.2,0.8
		s-0.2,0.5-0.2,0.8c0,0.1,0,0.3,0.1,0.4c0.1,0.1,0.1,0.3,0.1,0.4c0,0.2,0,0.4-0.1,0.6c0,0.2-0.1,0.4-0.1,0.6c0,0.2,0,0.3,0.1,0.5
		c0.1,0.1,0.1,0.3,0.1,0.4c0,0.1,0,0.2-0.1,0.2s-0.1,0.1-0.1,0.2c0,0.1-0.1,0.1-0.1,0.2c0,0.1-0.1,0.1-0.1,0.2c0,0.2,0,0.3,0.1,0.5
		c0.1,0.2,0.2,0.3,0.3,0.5s0.3,0.2,0.4,0.3s0.3,0.1,0.5,0.1c0.1,0,0.3,0,0.4-0.1c0.1-0.1,0.2-0.1,0.3-0.1c0.2,0,0.3,0.1,0.4,0.2
		s0.2,0.3,0.3,0.4c0.1,0.2,0.2,0.4,0.2,0.5C103.4,509.7,103.4,509.8,103.4,509.9z M89.4,503.5c0-0.1,0-0.2,0-0.3
		c0-0.1-0.1-0.2-0.1-0.3c0-0.1-0.1-0.2-0.2-0.3c-0.1-0.1-0.2-0.1-0.3-0.1c-0.1,0-0.2,0-0.3,0.1c-0.1,0.1-0.2,0.1-0.3,0.1h-0.1
		c0,0.1,0,0.2,0,0.3l0,0.1l0,0c0,0.1,0.1,0.2,0.2,0.3c0.1,0.1,0.2,0.1,0.3,0.2c0.1,0,0.2,0.1,0.3,0.1c0.1,0,0.2,0.1,0.3,0.2
		C89.4,503.8,89.4,503.6,89.4,503.5z M99.9,503.8c0-0.1,0-0.2-0.1-0.3c-0.1-0.1-0.2-0.2-0.3-0.2s-0.2,0.1-0.2,0.2s-0.1,0.2-0.1,0.3
		c0,0.1,0,0.2,0.1,0.3c0,0.1,0.1,0.2,0.3,0.2c0.1,0,0.2,0,0.3-0.1C99.9,504.2,99.9,504,99.9,503.8L99.9,503.8z M100.2,506.9
		c0-0.1,0-0.1-0.1-0.2c-0.1,0-0.1-0.1-0.2-0.1c0,0.1-0.1,0.1-0.1,0.2c-0.1,0.1-0.1,0.1-0.2,0.2c-0.1,0.1-0.1,0.2-0.2,0.2
		c0,0.1-0.1,0.2-0.1,0.2c0,0.1,0,0.2,0.1,0.2c0.1,0,0.1,0.1,0.2,0.1c0-0.1,0-0.1,0.1-0.2c0.1-0.1,0.1-0.1,0.2-0.2
		c0.1-0.1,0.1-0.1,0.2-0.2C100.2,507.1,100.2,507,100.2,506.9z"/>
</g>
</svg>
